<svg width="1920" height="1080" viewBox="0 0 1920 1080" fill="none" xmlns="http://www.w3.org/2000/svg">
<path opacity="0.2" d="M3360.9 2018.21H3470.06V1909.05M3360.9 2018.21V1909.05M3360.9 2018.21H3251.74M3360.9 1909.05H3470.06M3360.9 1909.05V1799.89M3360.9 1909.05H3251.74M3470.06 1909.05V1799.89M3360.9 1799.89H3470.06M3360.9 1799.89V1690.73M3360.9 1799.89H3251.74M3470.06 1799.89V1690.73M3360.9 1690.73H3470.06M3360.9 1690.73V1581.57M3360.9 1690.73H3251.74M3470.06 1690.73V1581.57M3360.9 1581.57H3470.06M3360.9 1581.57V1472.41M3360.9 1581.57H3251.74M3470.06 1581.57V1472.41M3360.9 1472.41H3470.06M3360.9 1472.41V1363.25M3360.9 1472.41H3251.74M3470.06 1472.41V1363.25M3360.9 1363.25H3470.06M3360.9 1363.25V1254.09M3360.9 1363.25H3251.74M3470.06 1363.25V1254.09M3360.9 1254.09H3470.06M3360.9 1254.09V1144.92M3360.9 1254.09H3251.74M3470.06 1254.09V1144.92M3360.9 1144.92H3470.06M3360.9 1144.92V1035.76M3360.9 1144.92H3251.74M3470.06 1144.92V1035.76M3360.9 1035.76H3470.06M3360.9 1035.76V926.604M3360.9 1035.76H3251.74M3470.06 1035.76V926.604M3360.9 926.604H3470.06M3360.9 926.604V817.444M3360.9 926.604H3251.74M3470.06 926.604V817.444M3360.9 817.444H3470.06M3360.9 817.444V708.283M3360.9 817.444H3251.74M3470.06 817.444V708.283M3360.9 708.283H3470.06M3360.9 708.283V599.123M3360.9 708.283H3251.74M3470.06 708.283V599.123M3360.9 599.123H3470.06M3360.9 599.123V489.962M3360.9 599.123H3251.74M3470.06 599.123V489.962M3360.9 489.962H3470.06M3360.9 489.962V380.802M3360.9 489.962H3251.74M3470.06 489.962V380.802M3360.9 380.802H3470.06M3360.9 380.802V271.642M3360.9 380.802H3251.74M3470.06 380.802V271.642M3360.9 271.642H3470.06M3360.9 271.642V162.481M3360.9 271.642H3251.74M3470.06 271.642V162.481M3360.9 162.481H3470.06M3360.9 162.481L3360.9 53.321M3360.9 162.481H3251.74M3470.06 162.481L3470.06 53.321M3360.9 53.321H3470.06M3360.9 53.321V-55.8394M3360.9 53.321H3251.74M3470.06 53.321V-55.8394M3360.9 -55.8394H3470.06M3360.9 -55.8394V-165M3360.9 -55.8394H3251.74M3470.06 -55.8394V-165H3360.9M3360.9 -165H3251.74M3251.74 2018.21V1909.05M3251.74 2018.21H3142.58M3251.74 1909.05V1799.89M3251.74 1909.05H3142.58M3251.74 1799.89V1690.73M3251.74 1799.89H3142.58M3251.74 1690.73V1581.57M3251.74 1690.73H3142.58M3251.74 1581.57V1472.41M3251.74 1581.57H3142.58M3251.74 1472.41V1363.25M3251.74 1472.41H3142.58M3251.74 1363.25V1254.09M3251.74 1363.25H3142.58M3251.74 1254.09V1144.92M3251.74 1254.09H3142.58M3251.74 1144.92V1035.76M3251.74 1144.92H3142.58M3251.74 1035.76V926.604M3251.74 1035.76H3142.58M3251.74 926.604V817.444M3251.74 926.604H3142.58M3251.74 817.444V708.283M3251.74 817.444H3142.58M3251.74 708.283V599.123M3251.74 708.283H3142.58M3251.74 599.123V489.962M3251.74 599.123H3142.58M3251.74 489.962V380.802M3251.74 489.962H3142.58M3251.74 380.802V271.642M3251.74 380.802H3142.58M3251.74 271.642V162.481M3251.74 271.642H3142.58M3251.74 162.481V53.321M3251.74 162.481H3142.58M3251.74 53.321L3251.74 -55.8394M3251.74 53.321H3142.58M3251.74 -55.8394V-165M3251.74 -55.8394H3142.58M3251.74 -165H3142.58M3142.58 2018.21V1909.05M3142.58 2018.21H3033.42M3142.58 1909.05V1799.89M3142.58 1909.05H3033.42M3142.58 1799.89V1690.73M3142.58 1799.89H3033.42M3142.58 1690.73V1581.57M3142.58 1690.73H3033.42M3142.58 1581.57V1472.41M3142.58 1581.57H3033.42M3142.58 1472.41V1363.25M3142.58 1472.41H3033.42M3142.58 1363.25V1254.09M3142.58 1363.25H3033.42M3142.58 1254.09V1144.92M3142.58 1254.09H3033.42M3142.58 1144.92V1035.76M3142.58 1144.92H3033.42M3142.58 1035.76V926.604M3142.58 1035.76H3033.42M3142.58 926.604V817.444M3142.58 926.604H3033.42M3142.58 817.444V708.283M3142.58 817.444H3033.42M3142.58 708.283V599.123M3142.58 708.283H3033.42M3142.58 599.123V489.962M3142.58 599.123H3033.42M3142.58 489.962V380.802M3142.58 489.962H3033.42M3142.58 380.802V271.642M3142.58 380.802H3033.42M3142.58 271.642V162.481M3142.58 271.642H3033.42M3142.58 162.481V53.321M3142.58 162.481H3033.42M3142.58 53.321V-55.8394M3142.58 53.321H3033.42M3142.58 -55.8394L3142.58 -165M3142.58 -55.8394H3033.42M3142.58 -165H3033.42M3033.42 2018.21V1909.05M3033.42 2018.21H2924.25M3033.42 1909.05V1799.89M3033.42 1909.05H2924.25M3033.42 1799.89V1690.73M3033.42 1799.89H2924.25M3033.42 1690.73V1581.57M3033.42 1690.73H2924.25M3033.42 1581.57V1472.41M3033.42 1581.57H2924.25M3033.42 1472.41V1363.25M3033.42 1472.41H2924.25M3033.42 1363.25V1254.09M3033.42 1363.25H2924.25M3033.42 1254.09V1144.92M3033.42 1254.09H2924.25M3033.42 1144.92V1035.76M3033.42 1144.92H2924.25M3033.42 1035.76V926.604M3033.42 1035.76H2924.25M3033.42 926.604V817.444M3033.42 926.604H2924.25M3033.42 817.444V708.283M3033.42 817.444H2924.25M3033.42 708.283V599.123M3033.42 708.283H2924.25M3033.42 599.123V489.962M3033.42 599.123H2924.25M3033.42 489.962V380.802M3033.42 489.962H2924.25M3033.42 380.802V271.642M3033.42 380.802H2924.25M3033.42 271.642V162.481M3033.42 271.642H2924.25M3033.42 162.481V53.321M3033.42 162.481H2924.25M3033.42 53.321V-55.8394M3033.42 53.321H2924.25M3033.42 -55.8394L3033.42 -165M3033.42 -55.8394H2924.25M3033.42 -165H2924.25M2924.25 2018.21V1909.05M2924.25 2018.21H2815.09M2924.25 1909.05V1799.89M2924.25 1909.05H2815.09M2924.25 1799.89V1690.73M2924.25 1799.89H2815.09M2924.25 1690.73V1581.57M2924.25 1690.73H2815.09M2924.25 1581.57V1472.41M2924.25 1581.57H2815.09M2924.25 1472.41V1363.25M2924.25 1472.41H2815.09M2924.25 1363.25V1254.09M2924.25 1363.25H2815.09M2924.25 1254.09V1144.92M2924.25 1254.09H2815.09M2924.25 1144.92V1035.76M2924.25 1144.92H2815.09M2924.25 1035.76V926.604M2924.25 1035.76H2815.09M2924.25 926.604V817.444M2924.25 926.604H2815.09M2924.25 817.444V708.283M2924.25 817.444H2815.09M2924.25 708.283V599.123M2924.25 708.283H2815.09M2924.25 599.123V489.962M2924.25 599.123H2815.09M2924.25 489.962V380.802M2924.25 489.962H2815.09M2924.25 380.802V271.642M2924.25 380.802H2815.09M2924.25 271.642V162.481M2924.25 271.642H2815.09M2924.25 162.481V53.321M2924.25 162.481H2815.09M2924.25 53.321V-55.8394M2924.25 53.321H2815.09M2924.25 -55.8394V-165M2924.25 -55.8394H2815.09M2924.25 -165H2815.09M2815.09 2018.21V1909.05M2815.09 2018.21H2705.93M2815.09 1909.05V1799.89M2815.09 1909.05H2705.93M2815.09 1799.89V1690.73M2815.09 1799.89H2705.93M2815.09 1690.73V1581.57M2815.09 1690.73H2705.93M2815.09 1581.57V1472.41M2815.09 1581.57H2705.93M2815.09 1472.41V1363.25M2815.09 1472.41H2705.93M2815.09 1363.25V1254.09M2815.09 1363.25H2705.93M2815.09 1254.09V1144.92M2815.09 1254.09H2705.93M2815.09 1144.92V1035.76M2815.09 1144.92H2705.93M2815.09 1035.76V926.604M2815.09 1035.76H2705.93M2815.09 926.604V817.444M2815.09 926.604H2705.93M2815.09 817.444V708.283M2815.09 817.444H2705.93M2815.09 708.283V599.123M2815.09 708.283H2705.93M2815.09 599.123V489.962M2815.09 599.123H2705.93M2815.09 489.962V380.802M2815.09 489.962H2705.93M2815.09 380.802V271.642M2815.09 380.802H2705.93M2815.09 271.642V162.481M2815.09 271.642H2705.93M2815.09 162.481V53.321M2815.09 162.481H2705.93M2815.09 53.321V-55.8394M2815.09 53.321H2705.93M2815.09 -55.8394V-165M2815.09 -55.8394H2705.93M2815.09 -165H2705.93M2705.93 2018.21V1909.05M2705.93 2018.21H2596.77M2705.93 1909.05V1799.89M2705.93 1909.05H2596.77M2705.93 1799.89V1690.73M2705.93 1799.89H2596.77M2705.93 1690.73V1581.57M2705.93 1690.73H2596.77M2705.93 1581.57V1472.41M2705.93 1581.57H2596.77M2705.93 1472.41V1363.25M2705.93 1472.41H2596.77M2705.93 1363.25V1254.09M2705.93 1363.25H2596.77M2705.93 1254.09V1144.92M2705.93 1254.09H2596.77M2705.93 1144.92V1035.76M2705.93 1144.92H2596.77M2705.93 1035.76V926.604M2705.93 1035.76H2596.77M2705.93 926.604V817.444M2705.93 926.604H2596.77M2705.93 817.444V708.283M2705.93 817.444H2596.77M2705.93 708.283V599.123M2705.93 708.283H2596.77M2705.93 599.123V489.962M2705.93 599.123H2596.77M2705.93 489.962V380.802M2705.93 489.962H2596.77M2705.93 380.802V271.642M2705.93 380.802H2596.77M2705.93 271.642V162.481M2705.93 271.642H2596.77M2705.93 162.481V53.321M2705.93 162.481H2596.77M2705.93 53.321V-55.8394M2705.93 53.321H2596.77M2705.93 -55.8394V-165M2705.93 -55.8394H2596.77M2705.93 -165H2596.77M2596.77 2018.21V1909.05M2596.77 2018.21L2487.61 2018.21M2596.77 1909.05V1799.89M2596.77 1909.05H2487.61M2596.77 1799.89V1690.73M2596.77 1799.89H2487.61M2596.77 1690.73V1581.57M2596.77 1690.73H2487.61M2596.77 1581.57V1472.41M2596.77 1581.57H2487.61M2596.77 1472.41V1363.25M2596.77 1472.41H2487.61M2596.77 1363.25V1254.09M2596.77 1363.25H2487.61M2596.77 1254.09V1144.92M2596.77 1254.09H2487.61M2596.77 1144.92V1035.76M2596.77 1144.92H2487.61M2596.77 1035.76V926.604M2596.77 1035.76H2487.61M2596.77 926.604V817.444M2596.77 926.604L2487.61 926.604M2596.77 817.444V708.283M2596.77 817.444L2487.61 817.444M2596.77 708.283V599.123M2596.77 708.283L2487.61 708.283M2596.77 599.123V489.962M2596.77 599.123L2487.61 599.123M2596.77 489.962V380.802M2596.77 489.962L2487.61 489.962M2596.77 380.802V271.642M2596.77 380.802L2487.61 380.802M2596.77 271.642V162.481M2596.77 271.642L2487.61 271.642M2596.77 162.481V53.321M2596.77 162.481L2487.61 162.481M2596.77 53.321V-55.8394M2596.77 53.321L2487.61 53.321M2596.77 -55.8394V-165M2596.77 -55.8394H2487.61M2596.77 -165H2487.61M2487.61 2018.21V1909.05M2487.61 2018.21H2378.45M2487.61 1909.05V1799.89M2487.61 1909.05L2378.45 1909.05M2487.61 1799.89V1690.73M2487.61 1799.89L2378.45 1799.89M2487.61 1690.73V1581.57M2487.61 1690.73H2378.45M2487.61 1581.57V1472.41M2487.61 1581.57H2378.45M2487.61 1472.41V1363.25M2487.61 1472.41H2378.45M2487.61 1363.25V1254.09M2487.61 1363.25H2378.45M2487.61 1254.09V1144.92M2487.61 1254.09H2378.45M2487.61 1144.92V1035.76M2487.61 1144.92H2378.45M2487.61 1035.76V926.604M2487.61 1035.76H2378.45M2487.61 926.604V817.444M2487.61 926.604H2378.45M2487.61 817.444V708.283M2487.61 817.444H2378.45M2487.61 708.283V599.123M2487.61 708.283H2378.45M2487.61 599.123V489.962M2487.61 599.123H2378.45M2487.61 489.962V380.802M2487.61 489.962H2378.45M2487.61 380.802V271.642M2487.61 380.802H2378.45M2487.61 271.642V162.481M2487.61 271.642H2378.45M2487.61 162.481V53.321M2487.61 162.481H2378.45M2487.61 53.321V-55.8394M2487.61 53.321H2378.45M2487.61 -55.8394V-165M2487.61 -55.8394H2378.45M2487.61 -165H2378.45M2378.45 2018.21V1909.05M2378.45 2018.21H2269.29M2378.45 1909.05V1799.89M2378.45 1909.05H2269.29M2378.45 1799.89V1690.73M2378.45 1799.89H2269.29M2378.45 1690.73V1581.57M2378.45 1690.73L2269.29 1690.73M2378.45 1581.57V1472.41M2378.45 1581.57L2269.29 1581.57M2378.45 1472.41V1363.25M2378.45 1472.41H2269.29M2378.45 1363.25V1254.09M2378.45 1363.25H2269.29M2378.45 1254.09V1144.92M2378.45 1254.09H2269.29M2378.45 1144.92V1035.76M2378.45 1144.92H2269.29M2378.45 1035.76V926.604M2378.45 1035.76H2269.29M2378.45 926.604V817.444M2378.45 926.604H2269.29M2378.45 817.444V708.283M2378.45 817.444H2269.29M2378.45 708.283V599.123M2378.45 708.283H2269.29M2378.45 599.123V489.962M2378.45 599.123H2269.29M2378.45 489.962V380.802M2378.45 489.962H2269.29M2378.45 380.802V271.642M2378.45 380.802H2269.29M2378.45 271.642V162.481M2378.45 271.642H2269.29M2378.45 162.481V53.321M2378.45 162.481H2269.29M2378.45 53.321V-55.8394M2378.45 53.321H2269.29M2378.45 -55.8394V-165M2378.45 -55.8394H2269.29M2378.45 -165H2269.29M2269.29 2018.21V1909.05M2269.29 2018.21H2160.13M2269.29 1909.05V1799.89M2269.29 1909.05H2160.13M2269.29 1799.89V1690.73M2269.29 1799.89H2160.13M2269.29 1690.73V1581.57M2269.29 1690.73H2160.13M2269.29 1581.57V1472.41M2269.29 1581.57H2160.13M2269.29 1472.41V1363.25M2269.29 1472.41H2160.13M2269.29 1363.25V1254.09M2269.29 1363.25H2160.13M2269.29 1254.09V1144.92M2269.29 1254.09H2160.13M2269.29 1144.92V1035.76M2269.29 1144.92H2160.13M2269.29 1035.76V926.604M2269.29 1035.76H2160.13M2269.29 926.604V817.444M2269.29 926.604H2160.13M2269.29 817.444V708.283M2269.29 817.444H2160.13M2269.29 708.283V599.123M2269.29 708.283H2160.13M2269.29 599.123V489.962M2269.29 599.123H2160.13M2269.29 489.962V380.802M2269.29 489.962H2160.13M2269.29 380.802V271.642M2269.29 380.802H2160.13M2269.29 271.642V162.481M2269.29 271.642H2160.13M2269.29 162.481V53.321M2269.29 162.481H2160.13M2269.29 53.321V-55.8394M2269.29 53.321H2160.13M2269.29 -55.8394V-165M2269.29 -55.8394H2160.13M2269.29 -165H2160.13M2160.13 2018.21V1909.05M2160.13 2018.21H2050.97M2160.13 1909.05V1799.89M2160.13 1909.05H2050.97M2160.13 1799.89V1690.73M2160.13 1799.89H2050.97M2160.13 1690.73V1581.57M2160.13 1690.73H2050.97M2160.13 1581.57V1472.41M2160.13 1581.57H2050.97M2160.13 1472.41V1363.25M2160.13 1472.41L2050.97 1472.41M2160.13 1363.25V1254.09M2160.13 1363.25L2050.97 1363.25M2160.13 1254.09V1144.92M2160.13 1254.09L2050.97 1254.09M2160.13 1144.92V1035.76M2160.13 1144.92L2050.97 1144.92M2160.13 1035.76V926.604M2160.13 1035.76L2050.97 1035.76M2160.13 926.604V817.444M2160.13 926.604H2050.97M2160.13 817.444V708.283M2160.13 817.444H2050.97M2160.13 708.283V599.123M2160.13 708.283H2050.97M2160.13 599.123V489.962M2160.13 599.123H2050.97M2160.13 489.962V380.802M2160.13 489.962H2050.97M2160.13 380.802V271.642M2160.13 380.802H2050.97M2160.13 271.642V162.481M2160.13 271.642H2050.97M2160.13 162.481V53.321M2160.13 162.481H2050.97M2160.13 53.321V-55.8394M2160.13 53.321H2050.97M2160.13 -55.8394V-165M2160.13 -55.8394H2050.97M2160.13 -165H2050.97M2050.97 2018.21V1909.05M2050.97 2018.21H1941.81M2050.97 1909.05V1799.89M2050.97 1909.05H1941.81M2050.97 1799.89V1690.73M2050.97 1799.89H1941.81M2050.97 1690.73V1581.57M2050.97 1690.73H1941.81M2050.97 1581.57V1472.41M2050.97 1581.57H1941.81M2050.97 1472.41V1363.25M2050.97 1472.41H1941.81M2050.97 1363.25V1254.09M2050.97 1363.25H1941.81M2050.97 1254.09V1144.92M2050.97 1254.09H1941.81M2050.97 1144.92V1035.76M2050.97 1144.92H1941.81M2050.97 1035.76V926.604M2050.97 1035.76H1941.81M2050.97 926.604V817.444M2050.97 926.604H1941.81M2050.97 817.444V708.283M2050.97 817.444H1941.81M2050.97 708.283V599.123M2050.97 708.283H1941.81M2050.97 599.123V489.962M2050.97 599.123H1941.81M2050.97 489.962V380.802M2050.97 489.962H1941.81M2050.97 380.802V271.642M2050.97 380.802H1941.81M2050.97 271.642V162.481M2050.97 271.642H1941.81M2050.97 162.481V53.321M2050.97 162.481H1941.81M2050.97 53.321V-55.8394M2050.97 53.321H1941.81M2050.97 -55.8394V-165M2050.97 -55.8394H1941.81M2050.97 -165H1941.81M1941.81 2018.21V1909.05M1941.81 2018.21H1832.65M1941.81 1909.05V1799.89M1941.81 1909.05H1832.65M1941.81 1799.89V1690.73M1941.81 1799.89H1832.65M1941.81 1690.73V1581.57M1941.81 1690.73H1832.65M1941.81 1581.57V1472.41M1941.81 1581.57H1832.65M1941.81 1472.41V1363.25M1941.81 1472.41H1832.65M1941.81 1363.25V1254.09M1941.81 1363.25H1832.65M1941.81 1254.09V1144.92M1941.81 1254.09H1832.65M1941.81 1144.92L1941.81 1035.76M1941.81 1144.92H1832.65M1941.81 1035.76V926.604M1941.81 1035.76H1832.65M1941.81 926.604V817.444M1941.81 926.604H1832.65M1941.81 817.444V708.283M1941.81 817.444H1832.65M1941.81 708.283V599.123M1941.81 708.283H1832.65M1941.81 599.123V489.962M1941.81 599.123H1832.65M1941.81 489.962V380.802M1941.81 489.962H1832.65M1941.81 380.802V271.642M1941.81 380.802H1832.65M1941.81 271.642V162.481M1941.81 271.642H1832.65M1941.81 162.481V53.321M1941.81 162.481H1832.65M1941.81 53.321V-55.8394M1941.81 53.321H1832.65M1941.81 -55.8394V-165M1941.81 -55.8394H1832.65M1941.81 -165H1832.65M1832.65 2018.21V1909.05M1832.65 2018.21H1723.49M1832.65 1909.05V1799.89M1832.65 1909.05H1723.49M1832.65 1799.89V1690.73M1832.65 1799.89H1723.49M1832.65 1690.73V1581.57M1832.65 1690.73H1723.49M1832.65 1581.57V1472.41M1832.65 1581.57H1723.49M1832.65 1472.41V1363.25M1832.65 1472.41H1723.49M1832.65 1363.25V1254.09M1832.65 1363.25H1723.49M1832.65 1254.09V1144.92M1832.65 1254.09H1723.49M1832.65 1144.92L1832.65 1035.76M1832.65 1144.92H1723.49M1832.65 1035.76V926.604M1832.65 1035.76H1723.49M1832.65 926.604V817.444M1832.65 926.604H1723.49M1832.65 817.444V708.283M1832.65 817.444H1723.49M1832.65 708.283V599.123M1832.65 708.283H1723.49M1832.65 599.123V489.962M1832.65 599.123H1723.49M1832.65 489.962V380.802M1832.65 489.962H1723.49M1832.65 380.802V271.642M1832.65 380.802H1723.49M1832.65 271.642V162.481M1832.65 271.642H1723.49M1832.65 162.481V53.321M1832.65 162.481H1723.49M1832.65 53.321V-55.8394M1832.65 53.321H1723.49M1832.65 -55.8394V-165M1832.65 -55.8394H1723.49M1832.65 -165H1723.49M1723.49 2018.21V1909.05M1723.49 2018.21H1614.33M1723.49 1909.05V1799.89M1723.49 1909.05H1614.33M1723.49 1799.89V1690.73M1723.49 1799.89H1614.33M1723.49 1690.73V1581.57M1723.49 1690.73H1614.33M1723.49 1581.57V1472.41M1723.49 1581.57H1614.33M1723.49 1472.41V1363.25M1723.49 1472.41H1614.33M1723.49 1363.25V1254.09M1723.49 1363.25H1614.33M1723.49 1254.09V1144.92M1723.49 1254.09H1614.33M1723.49 1144.92L1723.49 1035.76M1723.49 1144.92H1614.33M1723.49 1035.76V926.604M1723.49 1035.76H1614.33M1723.49 926.604V817.444M1723.49 926.604H1614.33M1723.49 817.444V708.283M1723.49 817.444H1614.33M1723.49 708.283V599.123M1723.49 708.283H1614.33M1723.49 599.123V489.962M1723.49 599.123H1614.33M1723.49 489.962V380.802M1723.49 489.962H1614.33M1723.49 380.802V271.642M1723.49 380.802H1614.33M1723.49 271.642V162.481M1723.49 271.642H1614.33M1723.49 162.481V53.321M1723.49 162.481H1614.33M1723.49 53.321V-55.8394M1723.49 53.321H1614.33M1723.49 -55.8394V-165M1723.49 -55.8394H1614.33M1723.49 -165H1614.33M1614.33 2018.21V1909.05M1614.33 2018.21H1505.17M1614.33 1909.05V1799.89M1614.33 1909.05H1505.17M1614.33 1799.89V1690.73M1614.33 1799.89H1505.17M1614.33 1690.73V1581.57M1614.33 1690.73H1505.17M1614.33 1581.57V1472.41M1614.33 1581.57H1505.17M1614.33 1472.41V1363.25M1614.33 1472.41H1505.17M1614.33 1363.25V1254.09M1614.33 1363.25H1505.17M1614.33 1254.09V1144.92M1614.33 1254.09H1505.17M1614.33 1144.92L1614.33 1035.76M1614.33 1144.92H1505.17M1614.33 1035.76V926.604M1614.33 1035.76H1505.17M1614.33 926.604V817.444M1614.33 926.604H1505.17M1614.33 817.444V708.283M1614.33 817.444H1505.17M1614.33 708.283V599.123M1614.33 708.283H1505.17M1614.33 599.123V489.962M1614.33 599.123H1505.17M1614.33 489.962V380.802M1614.33 489.962H1505.17M1614.33 380.802V271.642M1614.33 380.802H1505.17M1614.33 271.642V162.481M1614.33 271.642H1505.17M1614.33 162.481V53.321M1614.33 162.481H1505.17M1614.33 53.321V-55.8394M1614.33 53.321H1505.17M1614.33 -55.8394V-165M1614.33 -55.8394L1505.17 -55.8394M1614.33 -165L1505.17 -165M1505.17 2018.21V1909.05M1505.17 2018.21H1396.01M1505.17 1909.05V1799.89M1505.17 1909.05H1396.01M1505.17 1799.89V1690.73M1505.17 1799.89H1396.01M1505.17 1690.73V1581.57M1505.17 1690.73H1396.01M1505.17 1581.57V1472.41M1505.17 1581.57H1396.01M1505.17 1472.41V1363.25M1505.17 1472.41H1396.01M1505.17 1363.25V1254.09M1505.17 1363.25H1396.01M1505.17 1254.09V1144.92M1505.17 1254.09H1396.01M1505.17 1144.92L1505.17 1035.76M1505.17 1144.92H1396.01M1505.17 1035.76V926.604M1505.17 1035.76H1396.01M1505.17 926.604V817.444M1505.17 926.604H1396.01M1505.17 817.444V708.283M1505.17 817.444H1396.01M1505.17 708.283V599.123M1505.17 708.283H1396.01M1505.17 599.123V489.962M1505.17 599.123H1396.01M1505.17 489.962V380.802M1505.17 489.962H1396.01M1505.17 380.802V271.642M1505.17 380.802H1396.01M1505.17 271.642V162.481M1505.17 271.642H1396.01M1505.17 162.481V53.321M1505.17 162.481H1396.01M1505.17 53.321V-55.8394M1505.17 53.321H1396.01M1505.17 -55.8394V-165M1505.17 -55.8394H1396.01M1505.17 -165H1396.01M1396.01 2018.21V1909.05M1396.01 2018.21H1286.85M1396.01 1909.05V1799.89M1396.01 1909.05H1286.85M1396.01 1799.89V1690.73M1396.01 1799.89H1286.85M1396.01 1690.73V1581.57M1396.01 1690.73H1286.85M1396.01 1581.57V1472.41M1396.01 1581.57H1286.85M1396.01 1472.41V1363.25M1396.01 1472.41H1286.85M1396.01 1363.25V1254.09M1396.01 1363.25H1286.85M1396.01 1254.09V1144.92M1396.01 1254.09H1286.85M1396.01 1144.92V1035.76M1396.01 1144.92H1286.85M1396.01 1035.76V926.604M1396.01 1035.76H1286.85M1396.01 926.604V817.444M1396.01 926.604H1286.85M1396.01 817.444V708.283M1396.01 817.444H1286.85M1396.01 708.283V599.123M1396.01 708.283H1286.85M1396.01 599.123V489.962M1396.01 599.123H1286.85M1396.01 489.962V380.802M1396.01 489.962H1286.85M1396.01 380.802V271.642M1396.01 380.802H1286.85M1396.01 271.642V162.481M1396.01 271.642H1286.85M1396.01 162.481L1396.01 53.321M1396.01 162.481H1286.85M1396.01 53.321V-55.8394M1396.01 53.321H1286.85M1396.01 -55.8394V-165M1396.01 -55.8394H1286.85M1396.01 -165H1286.85M1286.85 2018.21V1909.05M1286.85 2018.21H1177.69M1286.85 1909.05V1799.89M1286.85 1909.05H1177.69M1286.85 1799.89V1690.73M1286.85 1799.89H1177.69M1286.85 1690.73V1581.57M1286.85 1690.73H1177.69M1286.85 1581.57V1472.41M1286.85 1581.57H1177.69M1286.85 1472.41V1363.25M1286.85 1472.41H1177.69M1286.85 1363.25V1254.09M1286.85 1363.25H1177.69M1286.85 1254.09V1144.92M1286.85 1254.09H1177.69M1286.85 1144.92V1035.76M1286.85 1144.92H1177.69M1286.85 1035.76V926.604M1286.85 1035.76H1177.69M1286.85 926.604V817.444M1286.85 926.604H1177.69M1286.85 817.444V708.283M1286.85 817.444H1177.69M1286.85 708.283V599.123M1286.85 708.283H1177.69M1286.85 599.123V489.962M1286.85 599.123H1177.69M1286.85 489.962V380.802M1286.85 489.962H1177.69M1286.85 380.802V271.642M1286.85 380.802H1177.69M1286.85 271.642V162.481M1286.85 271.642H1177.69M1286.85 162.481L1286.85 53.321M1286.85 162.481H1177.69M1286.85 53.321V-55.8394M1286.85 53.321H1177.69M1286.85 -55.8394V-165M1286.85 -55.8394H1177.69M1286.85 -165H1177.69M1177.69 2018.21V1909.05M1177.69 2018.21H1068.53M1177.69 1909.05V1799.89M1177.69 1909.05H1068.53M1177.69 1799.89V1690.73M1177.69 1799.89H1068.53M1177.69 1690.73V1581.57M1177.69 1690.73H1068.53M1177.69 1581.57V1472.41M1177.69 1581.57H1068.53M1177.69 1472.41V1363.25M1177.69 1472.41L1068.53 1472.41M1177.69 1363.25V1254.09M1177.69 1363.25L1068.53 1363.25M1177.69 1254.09V1144.92M1177.69 1254.09L1068.53 1254.09M1177.69 1144.92V1035.76M1177.69 1144.92L1068.53 1144.92M1177.69 1035.76V926.604M1177.69 1035.76L1068.53 1035.76M1177.69 926.604V817.444M1177.69 926.604H1068.53M1177.69 817.444V708.283M1177.69 817.444H1068.53M1177.69 708.283V599.123M1177.69 708.283H1068.53M1177.69 599.123V489.962M1177.69 599.123H1068.53M1177.69 489.962V380.802M1177.69 489.962H1068.53M1177.69 380.802V271.642M1177.69 380.802H1068.53M1177.69 271.642V162.481M1177.69 271.642H1068.53M1177.69 162.481L1177.69 53.321M1177.69 162.481H1068.53M1177.69 53.321V-55.8394M1177.69 53.321H1068.53M1177.69 -55.8394V-165M1177.69 -55.8394H1068.53M1177.69 -165H1068.53M1068.53 2018.21V1909.05M1068.53 2018.21H959.368M1068.53 1909.05V1799.89M1068.53 1909.05H959.368M1068.53 1799.89V1690.73M1068.53 1799.89H959.368M1068.53 1690.73V1581.57M1068.53 1690.73H959.368M1068.53 1581.57V1472.41M1068.53 1581.57H959.368M1068.53 1472.41V1363.25M1068.53 1472.41H959.368M1068.53 1363.25V1254.09M1068.53 1363.25H959.368M1068.53 1254.09V1144.92M1068.53 1254.09H959.368M1068.53 1144.92V1035.76M1068.53 1144.92H959.368M1068.53 1035.76V926.604M1068.53 1035.76H959.368M1068.53 926.604V817.444M1068.53 926.604H959.368M1068.53 817.444V708.283M1068.53 817.444H959.368M1068.53 708.283V599.123M1068.53 708.283H959.368M1068.53 599.123V489.962M1068.53 599.123H959.368M1068.53 489.962V380.802M1068.53 489.962H959.368M1068.53 380.802V271.642M1068.53 380.802H959.368M1068.53 271.642V162.481M1068.53 271.642H959.368M1068.53 162.481L1068.53 53.321M1068.53 162.481H959.368M1068.53 53.321V-55.8394M1068.53 53.321H959.368M1068.53 -55.8394V-165M1068.53 -55.8394H959.368M1068.53 -165H959.368M959.368 2018.21V1909.05M959.368 2018.21H850.208M959.368 1909.05V1799.89M959.368 1909.05H850.208M959.368 1799.89V1690.73M959.368 1799.89H850.208M959.368 1690.73V1581.57M959.368 1690.73L850.208 1690.73M959.368 1581.57V1472.41M959.368 1581.57L850.208 1581.57M959.368 1472.41V1363.25M959.368 1472.41H850.208M959.368 1363.25V1254.09M959.368 1363.25H850.208M959.368 1254.09V1144.92M959.368 1254.09H850.208M959.368 1144.92V1035.76M959.368 1144.92H850.208M959.368 1035.76V926.604M959.368 1035.76H850.208M959.368 926.604V817.444M959.368 926.604H850.208M959.368 817.444V708.283M959.368 817.444H850.208M959.368 708.283V599.123M959.368 708.283H850.208M959.368 599.123V489.962M959.368 599.123H850.208M959.368 489.962V380.802M959.368 489.962H850.208M959.368 380.802V271.642M959.368 380.802H850.208M959.368 271.642V162.481M959.368 271.642H850.208M959.368 162.481L959.368 53.321M959.368 162.481H850.208M959.368 53.321V-55.8394M959.368 53.321H850.208M959.368 -55.8394V-165M959.368 -55.8394H850.208M959.368 -165H850.208M850.208 2018.21V1909.05M850.208 2018.21H741.047M850.208 1909.05V1799.89M850.208 1909.05L741.047 1909.05M850.208 1799.89V1690.73M850.208 1799.89L741.047 1799.89M850.208 1690.73V1581.57M850.208 1690.73H741.047M850.208 1581.57V1472.41M850.208 1581.57H741.047M850.208 1472.41V1363.25M850.208 1472.41H741.047M850.208 1363.25V1254.09M850.208 1363.25H741.047M850.208 1254.09V1144.92M850.208 1254.09H741.047M850.208 1144.92V1035.76M850.208 1144.92H741.047M850.208 1035.76V926.604M850.208 1035.76H741.047M850.208 926.604V817.444M850.208 926.604H741.047M850.208 817.444V708.283M850.208 817.444H741.047M850.208 708.283V599.123M850.208 708.283H741.047M850.208 599.123V489.962M850.208 599.123H741.047M850.208 489.962V380.802M850.208 489.962H741.047M850.208 380.802V271.642M850.208 380.802H741.047M850.208 271.642V162.481M850.208 271.642H741.047M850.208 162.481L850.208 53.321M850.208 162.481H741.047M850.208 53.321V-55.8394M850.208 53.321H741.047M850.208 -55.8394V-165M850.208 -55.8394H741.047M850.208 -165H741.047M741.047 2018.21V1909.05M741.047 2018.21L631.887 2018.21M741.047 1909.05V1799.89M741.047 1909.05H631.887M741.047 1799.89V1690.73M741.047 1799.89H631.887M741.047 1690.73V1581.57M741.047 1690.73H631.887M741.047 1581.57V1472.41M741.047 1581.57H631.887M741.047 1472.41V1363.25M741.047 1472.41H631.887M741.047 1363.25V1254.09M741.047 1363.25H631.887M741.047 1254.09V1144.92M741.047 1254.09H631.887M741.047 1144.92V1035.76M741.047 1144.92H631.887M741.047 1035.76V926.604M741.047 1035.76H631.887M741.047 926.604V817.444M741.047 926.604L631.887 926.604M741.047 817.444V708.283M741.047 817.444L631.887 817.444M741.047 708.283V599.123M741.047 708.283L631.887 708.283M741.047 599.123V489.962M741.047 599.123L631.887 599.123M741.047 489.962V380.802M741.047 489.962L631.887 489.962M741.047 380.802V271.642M741.047 380.802L631.887 380.802M741.047 271.642V162.481M741.047 271.642L631.887 271.642M741.047 162.481L741.047 53.321M741.047 162.481L631.887 162.481M741.047 53.321V-55.8394M741.047 53.321L631.887 53.321M741.047 -55.8394V-165M741.047 -55.8394H631.887M741.047 -165H631.887M631.887 2018.21V1909.05M631.887 2018.21H522.726M631.887 1909.05V1799.89M631.887 1909.05H522.726M631.887 1799.89V1690.73M631.887 1799.89H522.726M631.887 1690.73V1581.57M631.887 1690.73H522.726M631.887 1581.57V1472.41M631.887 1581.57H522.726M631.887 1472.41V1363.25M631.887 1472.41H522.726M631.887 1363.25V1254.09M631.887 1363.25H522.726M631.887 1254.09V1144.92M631.887 1254.09H522.726M631.887 1144.92V1035.76M631.887 1144.92H522.726M631.887 1035.76V926.604M631.887 1035.76H522.726M631.887 926.604V817.444M631.887 926.604H522.726M631.887 817.444V708.283M631.887 817.444H522.726M631.887 708.283V599.123M631.887 708.283H522.726M631.887 599.123V489.962M631.887 599.123H522.726M631.887 489.962V380.802M631.887 489.962H522.726M631.887 380.802V271.642M631.887 380.802H522.726M631.887 271.642V162.481M631.887 271.642H522.726M631.887 162.481L631.887 53.321M631.887 162.481H522.726M631.887 53.321V-55.8394M631.887 53.321H522.726M631.887 -55.8394V-165M631.887 -55.8394H522.726M631.887 -165H522.726M522.726 2018.21V1909.05M522.726 2018.21H413.566M522.726 1909.05V1799.89M522.726 1909.05H413.566M522.726 1799.89V1690.73M522.726 1799.89H413.566M522.726 1690.73V1581.57M522.726 1690.73H413.566M522.726 1581.57V1472.41M522.726 1581.57H413.566M522.726 1472.41V1363.25M522.726 1472.41H413.566M522.726 1363.25V1254.09M522.726 1363.25H413.566M522.726 1254.09V1144.92M522.726 1254.09H413.566M522.726 1144.92V1035.76M522.726 1144.92H413.566M522.726 1035.76V926.604M522.726 1035.76H413.566M522.726 926.604V817.444M522.726 926.604H413.566M522.726 817.444V708.283M522.726 817.444H413.566M522.726 708.283V599.123M522.726 708.283H413.566M522.726 599.123V489.962M522.726 599.123H413.566M522.726 489.962V380.802M522.726 489.962H413.566M522.726 380.802V271.642M522.726 380.802H413.566M522.726 271.642V162.481M522.726 271.642H413.566M522.726 162.481L522.726 53.321M522.726 162.481H413.566M522.726 53.321V-55.8394M522.726 53.321H413.566M522.726 -55.8394V-165M522.726 -55.8394H413.566M522.726 -165H413.566M413.566 2018.21V1909.05M413.566 2018.21H304.406M413.566 1909.05V1799.89M413.566 1909.05H304.406M413.566 1799.89V1690.73M413.566 1799.89H304.406M413.566 1690.73V1581.57M413.566 1690.73H304.406M413.566 1581.57V1472.41M413.566 1581.57H304.406M413.566 1472.41V1363.25M413.566 1472.41H304.406M413.566 1363.25V1254.09M413.566 1363.25H304.406M413.566 1254.09V1144.92M413.566 1254.09H304.406M413.566 1144.92V1035.76M413.566 1144.92H304.406M413.566 1035.76V926.604M413.566 1035.76H304.406M413.566 926.604V817.444M413.566 926.604H304.406M413.566 817.444V708.283M413.566 817.444H304.406M413.566 708.283V599.123M413.566 708.283H304.406M413.566 599.123V489.962M413.566 599.123H304.406M413.566 489.962V380.802M413.566 489.962H304.406M413.566 380.802V271.642M413.566 380.802H304.406M413.566 271.642V162.481M413.566 271.642H304.406M413.566 162.481L413.566 53.321M413.566 162.481H304.406M413.566 53.321V-55.8394M413.566 53.321H304.406M413.566 -55.8394V-165M413.566 -55.8394H304.406M413.566 -165H304.406M304.406 2018.21V1909.05M304.406 2018.21H195.245M304.406 1909.05V1799.89M304.406 1909.05H195.245M304.406 1799.89V1690.73M304.406 1799.89H195.245M304.406 1690.73V1581.57M304.406 1690.73H195.245M304.406 1581.57V1472.41M304.406 1581.57H195.245M304.406 1472.41V1363.25M304.406 1472.41H195.245M304.406 1363.25V1254.09M304.406 1363.25H195.245M304.406 1254.09V1144.92M304.406 1254.09H195.245M304.406 1144.92V1035.76M304.406 1144.92H195.245M304.406 1035.76V926.604M304.406 1035.76H195.245M304.406 926.604V817.444M304.406 926.604H195.245M304.406 817.444V708.283M304.406 817.444H195.245M304.406 708.283V599.123M304.406 708.283H195.245M304.406 599.123V489.962M304.406 599.123H195.245M304.406 489.962V380.802M304.406 489.962H195.245M304.406 380.802V271.642M304.406 380.802H195.245M304.406 271.642V162.481M304.406 271.642H195.245M304.406 162.481L304.406 53.321M304.406 162.481H195.245M304.406 53.321V-55.8394M304.406 53.321H195.245M304.406 -55.8394V-165M304.406 -55.8394H195.245M304.406 -165H195.245M195.245 2018.21V1909.05M195.245 2018.21H86.085M195.245 1909.05V1799.89M195.245 1909.05H86.085M195.245 1799.89V1690.73M195.245 1799.89H86.085M195.245 1690.73V1581.57M195.245 1690.73H86.085M195.245 1581.57V1472.41M195.245 1581.57H86.085M195.245 1472.41V1363.25M195.245 1472.41H86.085M195.245 1363.25V1254.09M195.245 1363.25H86.085M195.245 1254.09V1144.92M195.245 1254.09H86.085M195.245 1144.92V1035.76M195.245 1144.92H86.085M195.245 1035.76V926.604M195.245 1035.76H86.085M195.245 926.604V817.444M195.245 926.604H86.085M195.245 817.444V708.283M195.245 817.444H86.085M195.245 708.283V599.123M195.245 708.283H86.085M195.245 599.123V489.962M195.245 599.123H86.085M195.245 489.962V380.802M195.245 489.962H86.085M195.245 380.802V271.642M195.245 380.802H86.085M195.245 271.642V162.481M195.245 271.642H86.085M195.245 162.481L195.245 53.321M195.245 162.481H86.085M195.245 53.321V-55.8394M195.245 53.321H86.085M195.245 -55.8394V-165M195.245 -55.8394H86.085M195.245 -165H86.085M86.085 2018.21V1909.05M86.085 2018.21H-23.0754M86.085 1909.05V1799.89M86.085 1909.05H-23.0754M86.085 1799.89V1690.73M86.085 1799.89H-23.0754M86.085 1690.73V1581.57M86.085 1690.73H-23.0754M86.085 1581.57V1472.41M86.085 1581.57H-23.0754M86.085 1472.41V1363.25M86.085 1472.41H-23.0754M86.085 1363.25V1254.09M86.085 1363.25H-23.0754M86.085 1254.09V1144.92M86.085 1254.09H-23.0754M86.085 1144.92V1035.76M86.085 1144.92H-23.0754M86.085 1035.76V926.604M86.085 1035.76H-23.0754M86.085 926.604V817.444M86.085 926.604H-23.0754M86.085 817.444V708.283M86.085 817.444H-23.0754M86.085 708.283V599.123M86.085 708.283H-23.0754M86.085 599.123V489.962M86.085 599.123H-23.0754M86.085 489.962V380.802M86.085 489.962H-23.0754M86.085 380.802V271.642M86.085 380.802H-23.0754M86.085 271.642V162.481M86.085 271.642H-23.0754M86.085 162.481L86.085 53.321M86.085 162.481H-23.0754M86.085 53.321V-55.8394M86.085 53.321H-23.0754M86.085 -55.8394V-165M86.085 -55.8394H-23.0754M86.085 -165H-23.0754M-23.0754 2018.21V1909.05M-23.0754 2018.21H-132.236M-23.0754 1909.05V1799.89M-23.0754 1909.05H-132.236M-23.0754 1799.89V1690.73M-23.0754 1799.89H-132.236M-23.0754 1690.73V1581.57M-23.0754 1690.73H-132.236M-23.0754 1581.57V1472.41M-23.0754 1581.57H-132.236M-23.0754 1472.41V1363.25M-23.0754 1472.41H-132.236M-23.0754 1363.25V1254.09M-23.0754 1363.25H-132.236M-23.0754 1254.09V1144.92M-23.0754 1254.09H-132.236M-23.0754 1144.92V1035.76M-23.0754 1144.92H-132.236M-23.0754 1035.76V926.604M-23.0754 1035.76H-132.236M-23.0754 926.604V817.444M-23.0754 926.604H-132.236M-23.0754 817.444V708.283M-23.0754 817.444H-132.236M-23.0754 708.283V599.123M-23.0754 708.283H-132.236M-23.0754 599.123V489.962M-23.0754 599.123H-132.236M-23.0754 489.962V380.802M-23.0754 489.962H-132.236M-23.0754 380.802V271.642M-23.0754 380.802H-132.236M-23.0754 271.642V162.481M-23.0754 271.642H-132.236M-23.0754 162.481L-23.0754 53.321M-23.0754 162.481H-132.236M-23.0754 53.321V-55.8394M-23.0754 53.321H-132.236M-23.0754 -55.8394V-165M-23.0754 -55.8394H-132.236M-23.0754 -165H-132.236M-132.236 2018.21V1909.05M-132.236 2018.21H-241.396M-132.236 1909.05V1799.89M-132.236 1909.05H-241.396M-132.236 1799.89V1690.73M-132.236 1799.89H-241.396M-132.236 1690.73V1581.57M-132.236 1690.73H-241.396M-132.236 1581.57V1472.41M-132.236 1581.57H-241.396M-132.236 1472.41V1363.25M-132.236 1472.41H-241.396M-132.236 1363.25V1254.09M-132.236 1363.25H-241.396M-132.236 1254.09V1144.92M-132.236 1254.09H-241.396M-132.236 1144.92V1035.76M-132.236 1144.92H-241.396M-132.236 1035.76V926.604M-132.236 1035.76H-241.396M-132.236 926.604V817.444M-132.236 926.604H-241.396M-132.236 817.444V708.283M-132.236 817.444H-241.396M-132.236 708.283V599.123M-132.236 708.283H-241.396M-132.236 599.123V489.962M-132.236 599.123H-241.396M-132.236 489.962V380.802M-132.236 489.962H-241.396M-132.236 380.802V271.642M-132.236 380.802H-241.396M-132.236 271.642V162.481M-132.236 271.642H-241.396M-132.236 162.481L-132.236 53.321M-132.236 162.481H-241.396M-132.236 53.321V-55.8394M-132.236 53.321H-241.396M-132.236 -55.8394V-165M-132.236 -55.8394H-241.396M-132.236 -165H-241.396M-241.396 2018.21V1909.05M-241.396 2018.21H-350.557M-241.396 1909.05V1799.89M-241.396 1909.05H-350.557M-241.396 1799.89V1690.73M-241.396 1799.89H-350.557M-241.396 1690.73V1581.57M-241.396 1690.73H-350.557M-241.396 1581.57V1472.41M-241.396 1581.57H-350.557M-241.396 1472.41V1363.25M-241.396 1472.41H-350.557M-241.396 1363.25V1254.09M-241.396 1363.25H-350.557M-241.396 1254.09V1144.92M-241.396 1254.09H-350.557M-241.396 1144.92V1035.76M-241.396 1144.92H-350.557M-241.396 1035.76V926.604M-241.396 1035.76H-350.557M-241.396 926.604V817.444M-241.396 926.604H-350.557M-241.396 817.444V708.283M-241.396 817.444H-350.557M-241.396 708.283V599.123M-241.396 708.283H-350.557M-241.396 599.123V489.962M-241.396 599.123H-350.557M-241.396 489.962V380.802M-241.396 489.962H-350.557M-241.396 380.802V271.642M-241.396 380.802H-350.557M-241.396 271.642V162.481M-241.396 271.642H-350.557M-241.396 162.481L-241.396 53.321M-241.396 162.481H-350.557M-241.396 53.321V-55.8394M-241.396 53.321H-350.557M-241.396 -55.8394V-165M-241.396 -55.8394H-350.557M-241.396 -165H-350.557M-350.557 2018.21V1909.05M-350.557 2018.21H-459.717M-350.557 1909.05V1799.89M-350.557 1909.05H-459.717M-350.557 1799.89V1690.73M-350.557 1799.89H-459.717M-350.557 1690.73V1581.57M-350.557 1690.73H-459.717M-350.557 1581.57V1472.41M-350.557 1581.57H-459.717M-350.557 1472.41V1363.25M-350.557 1472.41H-459.717M-350.557 1363.25V1254.09M-350.557 1363.25H-459.717M-350.557 1254.09V1144.92M-350.557 1254.09H-459.717M-350.557 1144.92V1035.76M-350.557 1144.92H-459.717M-350.557 1035.76V926.604M-350.557 1035.76H-459.717M-350.557 926.604V817.444M-350.557 926.604H-459.717M-350.557 817.444V708.283M-350.557 817.444H-459.717M-350.557 708.283V599.123M-350.557 708.283H-459.717M-350.557 599.123V489.962M-350.557 599.123H-459.717M-350.557 489.962V380.802M-350.557 489.962H-459.717M-350.557 380.802V271.642M-350.557 380.802H-459.717M-350.557 271.642V162.481M-350.557 271.642H-459.717M-350.557 162.481L-350.557 53.321M-350.557 162.481H-459.717M-350.557 53.321V-55.8394M-350.557 53.321H-459.717M-350.557 -55.8394V-165M-350.557 -55.8394H-459.717M-350.557 -165H-459.717M-459.717 2018.21V1909.05M-459.717 2018.21H-568.877M-459.717 1909.05V1799.89M-459.717 1909.05H-568.877M-459.717 1799.89V1690.73M-459.717 1799.89H-568.877M-459.717 1690.73V1581.57M-459.717 1690.73H-568.877M-459.717 1581.57V1472.41M-459.717 1581.57H-568.877M-459.717 1472.41V1363.25M-459.717 1472.41H-568.877M-459.717 1363.25V1254.09M-459.717 1363.25H-568.877M-459.717 1254.09V1144.92M-459.717 1254.09H-568.877M-459.717 1144.92V1035.76M-459.717 1144.92H-568.877M-459.717 1035.76V926.604M-459.717 1035.76H-568.877M-459.717 926.604V817.444M-459.717 926.604H-568.877M-459.717 817.444V708.283M-459.717 817.444H-568.877M-459.717 708.283V599.123M-459.717 708.283H-568.877M-459.717 599.123V489.962M-459.717 599.123H-568.877M-459.717 489.962V380.802M-459.717 489.962H-568.877M-459.717 380.802V271.642M-459.717 380.802H-568.877M-459.717 271.642V162.481M-459.717 271.642H-568.877M-459.717 162.481L-459.717 53.321M-459.717 162.481H-568.877M-459.717 53.321V-55.8394M-459.717 53.321H-568.877M-459.717 -55.8394V-165M-459.717 -55.8394H-568.877M-459.717 -165H-568.877M-568.877 2018.21V1909.05M-568.877 2018.21H-678.038M-568.877 1909.05V1799.89M-568.877 1909.05H-678.038M-568.877 1799.89V1690.73M-568.877 1799.89H-678.038M-568.877 1690.73V1581.57M-568.877 1690.73H-678.038M-568.877 1581.57V1472.41M-568.877 1581.57H-678.038M-568.877 1472.41V1363.25M-568.877 1472.41H-678.038M-568.877 1363.25V1254.09M-568.877 1363.25H-678.038M-568.877 1254.09V1144.92M-568.877 1254.09H-678.038M-568.877 1144.92V1035.76M-568.877 1144.92H-678.038M-568.877 1035.76V926.604M-568.877 1035.76H-678.038M-568.877 926.604V817.444M-568.877 926.604H-678.038M-568.877 817.444V708.283M-568.877 817.444H-678.038M-568.877 708.283V599.123M-568.877 708.283H-678.038M-568.877 599.123V489.962M-568.877 599.123H-678.038M-568.877 489.962V380.802M-568.877 489.962H-678.038M-568.877 380.802V271.642M-568.877 380.802H-678.038M-568.877 271.642V162.481M-568.877 271.642H-678.038M-568.877 162.481L-568.877 53.321M-568.877 162.481H-678.038M-568.877 53.321V-55.8394M-568.877 53.321H-678.038M-568.877 -55.8394V-165M-568.877 -55.8394H-678.038M-568.877 -165H-678.038M-678.038 2018.21V1909.05M-678.038 2018.21H-787.198M-678.038 1909.05V1799.89M-678.038 1909.05H-787.198M-678.038 1799.89V1690.73M-678.038 1799.89H-787.198M-678.038 1690.73V1581.57M-678.038 1690.73H-787.198M-678.038 1581.57V1472.41M-678.038 1581.57H-787.198M-678.038 1472.41V1363.25M-678.038 1472.41H-787.198M-678.038 1363.25V1254.09M-678.038 1363.25H-787.198M-678.038 1254.09V1144.92M-678.038 1254.09H-787.198M-678.038 1144.92V1035.76M-678.038 1144.92H-787.198M-678.038 1035.76V926.604M-678.038 1035.76H-787.198M-678.038 926.604V817.444M-678.038 926.604H-787.198M-678.038 817.444V708.283M-678.038 817.444H-787.198M-678.038 708.283V599.123M-678.038 708.283H-787.198M-678.038 599.123V489.962M-678.038 599.123H-787.198M-678.038 489.962V380.802M-678.038 489.962H-787.198M-678.038 380.802V271.642M-678.038 380.802H-787.198M-678.038 271.642V162.481M-678.038 271.642H-787.198M-678.038 162.481V53.321M-678.038 162.481H-787.198M-678.038 53.321V-55.8394M-678.038 53.321H-787.198M-678.038 -55.8394V-165M-678.038 -55.8394H-787.198M-678.038 -165H-787.198M-787.198 2018.21V1909.05M-787.198 2018.21H-896.358M-787.198 1909.05V1799.89M-787.198 1909.05H-896.358M-787.198 1799.89V1690.73M-787.198 1799.89H-896.358M-787.198 1690.73V1581.57M-787.198 1690.73H-896.358M-787.198 1581.57V1472.41M-787.198 1581.57H-896.358M-787.198 1472.41V1363.25M-787.198 1472.41H-896.358M-787.198 1363.25V1254.09M-787.198 1363.25H-896.358M-787.198 1254.09V1144.92M-787.198 1254.09H-896.358M-787.198 1144.92V1035.76M-787.198 1144.92H-896.358M-787.198 1035.76V926.604M-787.198 1035.76H-896.358M-787.198 926.604V817.444M-787.198 926.604H-896.358M-787.198 817.444V708.283M-787.198 817.444H-896.358M-787.198 708.283V599.123M-787.198 708.283H-896.358M-787.198 599.123V489.962M-787.198 599.123H-896.358M-787.198 489.962V380.802M-787.198 489.962H-896.358M-787.198 380.802V271.642M-787.198 380.802H-896.358M-787.198 271.642V162.481M-787.198 271.642H-896.358M-787.198 162.481V53.321M-787.198 162.481H-896.358M-787.198 53.321V-55.8394M-787.198 53.321H-896.358M-787.198 -55.8394V-165M-787.198 -55.8394H-896.358M-787.198 -165H-896.358M-896.358 2018.21V1909.05M-896.358 2018.21H-1005.52M-896.358 1909.05V1799.89M-896.358 1909.05H-1005.52M-896.358 1799.89V1690.73M-896.358 1799.89H-1005.52M-896.358 1690.73V1581.57M-896.358 1690.73H-1005.52M-896.358 1581.57V1472.41M-896.358 1581.57H-1005.52M-896.358 1472.41V1363.25M-896.358 1472.41H-1005.52M-896.358 1363.25V1254.09M-896.358 1363.25H-1005.52M-896.358 1254.09V1144.92M-896.358 1254.09H-1005.52M-896.358 1144.92V1035.76M-896.358 1144.92H-1005.52M-896.358 1035.76V926.604M-896.358 1035.76H-1005.52M-896.358 926.604V817.444M-896.358 926.604H-1005.52M-896.358 817.444V708.283M-896.358 817.444H-1005.52M-896.358 708.283V599.123M-896.358 708.283H-1005.52M-896.358 599.123V489.962M-896.358 599.123H-1005.52M-896.358 489.962V380.802M-896.358 489.962H-1005.52M-896.358 380.802V271.642M-896.358 380.802H-1005.52M-896.358 271.642V162.481M-896.358 271.642H-1005.52M-896.358 162.481V53.321M-896.358 162.481H-1005.52M-896.358 53.321V-55.8394M-896.358 53.321H-1005.52M-896.358 -55.8394V-165M-896.358 -55.8394H-1005.52M-896.358 -165H-1005.52M-1005.52 2018.21V1909.05M-1005.52 2018.21H-1114.68M-1005.52 1909.05V1799.89M-1005.52 1909.05H-1114.68M-1005.52 1799.89V1690.73M-1005.52 1799.89H-1114.68M-1005.52 1690.73V1581.57M-1005.52 1690.73H-1114.68M-1005.52 1581.57V1472.41M-1005.52 1581.57H-1114.68M-1005.52 1472.41V1363.25M-1005.52 1472.41H-1114.68M-1005.52 1363.25V1254.09M-1005.52 1363.25H-1114.68M-1005.52 1254.09V1144.92M-1005.52 1254.09H-1114.68M-1005.52 1144.92V1035.76M-1005.52 1144.92H-1114.68M-1005.52 1035.76V926.604M-1005.52 1035.76H-1114.68M-1005.52 926.604V817.444M-1005.52 926.604H-1114.68M-1005.52 817.444V708.283M-1005.52 817.444H-1114.68M-1005.52 708.283V599.123M-1005.52 708.283H-1114.68M-1005.52 599.123V489.962M-1005.52 599.123H-1114.68M-1005.52 489.962V380.802M-1005.52 489.962H-1114.68M-1005.52 380.802V271.642M-1005.52 380.802H-1114.68M-1005.52 271.642V162.481M-1005.52 271.642H-1114.68M-1005.52 162.481V53.321M-1005.52 162.481H-1114.68M-1005.52 53.321V-55.8394M-1005.52 53.321H-1114.68M-1005.52 -55.8394V-165M-1005.52 -55.8394H-1114.68M-1005.52 -165H-1114.68M-1114.68 2018.21V1909.05M-1114.68 2018.21L-1223.84 2018.21M-1114.68 1909.05V1799.89M-1114.68 1909.05H-1223.84M-1114.68 1799.89V1690.73M-1114.68 1799.89H-1223.84M-1114.68 1690.73V1581.57M-1114.68 1690.73H-1223.84M-1114.68 1581.57V1472.41M-1114.68 1581.57H-1223.84M-1114.68 1472.41V1363.25M-1114.68 1472.41H-1223.84M-1114.68 1363.25V1254.09M-1114.68 1363.25H-1223.84M-1114.68 1254.09V1144.92M-1114.68 1254.09H-1223.84M-1114.68 1144.92V1035.76M-1114.68 1144.92H-1223.84M-1114.68 1035.76V926.604M-1114.68 1035.76H-1223.84M-1114.68 926.604V817.444M-1114.68 926.604L-1223.84 926.604M-1114.68 817.444V708.283M-1114.68 817.444L-1223.84 817.444M-1114.68 708.283V599.123M-1114.68 708.283L-1223.84 708.283M-1114.68 599.123V489.962M-1114.68 599.123L-1223.84 599.123M-1114.68 489.962V380.802M-1114.68 489.962L-1223.84 489.962M-1114.68 380.802V271.642M-1114.68 380.802L-1223.84 380.802M-1114.68 271.642V162.481M-1114.68 271.642L-1223.84 271.642M-1114.68 162.481V53.321M-1114.68 162.481L-1223.84 162.481M-1114.68 53.321V-55.8394M-1114.68 53.321L-1223.84 53.321M-1114.68 -55.8394V-165M-1114.68 -55.8394H-1223.84M-1114.68 -165H-1223.84M-1223.84 2018.21V1909.05M-1223.84 2018.21H-1333V1909.05M-1223.84 1909.05V1799.89M-1223.84 1909.05L-1333 1909.05M-1223.84 1799.89V1690.73M-1223.84 1799.89L-1333 1799.89M-1223.84 1690.73V1581.57M-1223.84 1690.73H-1333M-1223.84 1581.57V1472.41M-1223.84 1581.57H-1333M-1223.84 1472.41V1363.25M-1223.84 1472.41H-1333M-1223.84 1363.25V1254.09M-1223.84 1363.25H-1333M-1223.84 1254.09V1144.92M-1223.84 1254.09H-1333M-1223.84 1144.92V1035.76M-1223.84 1144.92H-1333M-1223.84 1035.76V926.604M-1223.84 1035.76H-1333M-1223.84 926.604V817.444M-1223.84 926.604H-1333M-1223.84 817.444V708.283M-1223.84 817.444H-1333M-1223.84 708.283V599.123M-1223.84 708.283H-1333M-1223.84 599.123V489.962M-1223.84 599.123H-1333M-1223.84 489.962V380.802M-1223.84 489.962H-1333M-1223.84 380.802V271.642M-1223.84 380.802H-1333M-1223.84 271.642V162.481M-1223.84 271.642H-1333M-1223.84 162.481V53.321M-1223.84 162.481H-1333M-1223.84 53.321V-55.8394M-1223.84 53.321H-1333M-1223.84 -55.8394V-165M-1223.84 -55.8394H-1333M-1223.84 -165H-1333V-55.8394M-1333 1909.05V1799.89M-1333 1799.89V1690.73M-1333 1690.73V1581.57M-1333 1581.57V1472.41M-1333 1472.41V1363.25M-1333 1363.25V1254.09M-1333 1254.09V1144.92M-1333 1144.92V1035.76M-1333 1035.76V926.604M-1333 926.604V817.444M-1333 817.444V708.283M-1333 708.283V599.123M-1333 599.123V489.962M-1333 489.962V380.802M-1333 380.802V271.642M-1333 271.642V162.481M-1333 162.481V53.321M-1333 53.321V-55.8394" stroke="url(#paint0_linear_128_184)" stroke-opacity="0.38" stroke-width="1.23588"/>
<defs>
<linearGradient id="paint0_linear_128_184" x1="1068.53" y1="2018.21" x2="1068.53" y2="-165" gradientUnits="userSpaceOnUse">
<stop stop-color="white" stop-opacity="0.6"/>
<stop offset="0.599" stop-color="#999999" stop-opacity="0.6"/>
<stop offset="1" stop-color="#999999" stop-opacity="0"/>
</linearGradient>
</defs>
</svg>
