<svg width="1920" height="1080" viewBox="0 0 1920 1080" fill="none" xmlns="http://www.w3.org/2000/svg">
<path opacity="0.2" d="M-1223.84 -115H-1333V-5.83961M-1223.84 -115V-5.83961M-1223.84 -115H-1114.68M-1223.84 -5.83961H-1333M-1223.84 -5.83961V103.321M-1223.84 -5.83961H-1114.68M-1333 -5.83961V103.321M-1223.84 103.321H-1333M-1223.84 103.321V212.481M-1223.84 103.321H-1114.68M-1333 103.321V212.481M-1223.84 212.481H-1333M-1223.84 212.481V321.642M-1223.84 212.481H-1114.68M-1333 212.481V321.642M-1223.84 321.642H-1333M-1223.84 321.642V430.802M-1223.84 321.642H-1114.68M-1333 321.642V430.802M-1223.84 430.802H-1333M-1223.84 430.802V539.962M-1223.84 430.802H-1114.68M-1333 430.802V539.962M-1223.84 539.962H-1333M-1223.84 539.962V649.123M-1223.84 539.962H-1114.68M-1333 539.962V649.123M-1223.84 649.123H-1333M-1223.84 649.123V758.283M-1223.84 649.123H-1114.68M-1333 649.123V758.283M-1223.84 758.283H-1333M-1223.84 758.283V867.443M-1223.84 758.283H-1114.68M-1333 758.283V867.443M-1223.84 867.443H-1333M-1223.84 867.443V976.604M-1223.84 867.443H-1114.68M-1333 867.443V976.604M-1223.84 976.604H-1333M-1223.84 976.604V1085.76M-1223.84 976.604H-1114.68M-1333 976.604V1085.76M-1223.84 1085.76H-1333M-1223.84 1085.76V1194.92M-1223.84 1085.76H-1114.68M-1333 1085.76V1194.92M-1223.84 1194.92H-1333M-1223.84 1194.92V1304.09M-1223.84 1194.92H-1114.68M-1333 1194.92V1304.09M-1223.84 1304.09H-1333M-1223.84 1304.09V1413.25M-1223.84 1304.09H-1114.68M-1333 1304.09V1413.25M-1223.84 1413.25H-1333M-1223.84 1413.25V1522.41M-1223.84 1413.25H-1114.68M-1333 1413.25V1522.41M-1223.84 1522.41H-1333M-1223.84 1522.41V1631.57M-1223.84 1522.41H-1114.68M-1333 1522.41V1631.57M-1223.84 1631.57H-1333M-1223.84 1631.57V1740.73M-1223.84 1631.57H-1114.68M-1333 1631.57V1740.73M-1223.84 1740.73H-1333M-1223.84 1740.73V1849.89M-1223.84 1740.73H-1114.68M-1333 1740.73V1849.89M-1223.84 1849.89H-1333M-1223.84 1849.89V1959.05M-1223.84 1849.89H-1114.68M-1333 1849.89V1959.05M-1223.84 1959.05H-1333M-1223.84 1959.05V2068.21M-1223.84 1959.05H-1114.68M-1333 1959.05V2068.21H-1223.84M-1223.84 2068.21H-1114.68M-1114.68 -115V-5.83961M-1114.68 -115H-1005.52M-1114.68 -5.83961V103.321M-1114.68 -5.83961H-1005.52M-1114.68 103.321V212.481M-1114.68 103.321H-1005.52M-1114.68 212.481V321.642M-1114.68 212.481H-1005.52M-1114.68 321.642V430.802M-1114.68 321.642H-1005.52M-1114.68 430.802V539.962M-1114.68 430.802H-1005.52M-1114.68 539.962V649.123M-1114.68 539.962H-1005.52M-1114.68 649.123V758.283M-1114.68 649.123H-1005.52M-1114.68 758.283V867.443M-1114.68 758.283H-1005.52M-1114.68 867.443V976.604M-1114.68 867.443H-1005.52M-1114.68 976.604V1085.76M-1114.68 976.604H-1005.52M-1114.68 1085.76V1194.92M-1114.68 1085.76H-1005.52M-1114.68 1194.92V1304.09M-1114.68 1194.92H-1005.52M-1114.68 1304.09V1413.25M-1114.68 1304.09H-1005.52M-1114.68 1413.25V1522.41M-1114.68 1413.25H-1005.52M-1114.68 1522.41V1631.57M-1114.68 1522.41H-1005.52M-1114.68 1631.57V1740.73M-1114.68 1631.57H-1005.52M-1114.68 1740.73V1849.89M-1114.68 1740.73H-1005.52M-1114.68 1849.89V1959.05M-1114.68 1849.89H-1005.52M-1114.68 1959.05V2068.21M-1114.68 1959.05H-1005.52M-1114.68 2068.21H-1005.52M-1005.52 -115V-5.83961M-1005.52 -115H-896.358M-1005.52 -5.83961V103.321M-1005.52 -5.83961H-896.358M-1005.52 103.321V212.481M-1005.52 103.321H-896.358M-1005.52 212.481V321.642M-1005.52 212.481H-896.358M-1005.52 321.642V430.802M-1005.52 321.642H-896.358M-1005.52 430.802V539.962M-1005.52 430.802H-896.358M-1005.52 539.962V649.123M-1005.52 539.962H-896.358M-1005.52 649.123V758.283M-1005.52 649.123H-896.358M-1005.52 758.283V867.443M-1005.52 758.283H-896.358M-1005.52 867.443V976.604M-1005.52 867.443H-896.358M-1005.52 976.604V1085.76M-1005.52 976.604H-896.358M-1005.52 1085.76V1194.92M-1005.52 1085.76H-896.358M-1005.52 1194.92V1304.09M-1005.52 1194.92H-896.358M-1005.52 1304.09V1413.25M-1005.52 1304.09H-896.358M-1005.52 1413.25V1522.41M-1005.52 1413.25H-896.358M-1005.52 1522.41V1631.57M-1005.52 1522.41H-896.358M-1005.52 1631.57V1740.73M-1005.52 1631.57H-896.358M-1005.52 1740.73V1849.89M-1005.52 1740.73H-896.358M-1005.52 1849.89V1959.05M-1005.52 1849.89H-896.358M-1005.52 1959.05V2068.21M-1005.52 1959.05H-896.358M-1005.52 2068.21H-896.358M-896.358 -115V-5.83961M-896.358 -115H-787.198M-896.358 -5.83961V103.321M-896.358 -5.83961H-787.198M-896.358 103.321V212.481M-896.358 103.321H-787.198M-896.358 212.481V321.642M-896.358 212.481H-787.198M-896.358 321.642V430.802M-896.358 321.642H-787.198M-896.358 430.802V539.962M-896.358 430.802H-787.198M-896.358 539.962V649.123M-896.358 539.962H-787.198M-896.358 649.123V758.283M-896.358 649.123H-787.198M-896.358 758.283V867.443M-896.358 758.283H-787.198M-896.358 867.443V976.604M-896.358 867.443H-787.198M-896.358 976.604V1085.76M-896.358 976.604H-787.198M-896.358 1085.76V1194.92M-896.358 1085.76H-787.198M-896.358 1194.92V1304.09M-896.358 1194.92H-787.198M-896.358 1304.09V1413.25M-896.358 1304.09H-787.198M-896.358 1413.25V1522.41M-896.358 1413.25H-787.198M-896.358 1522.41V1631.57M-896.358 1522.41H-787.198M-896.358 1631.57V1740.73M-896.358 1631.57H-787.198M-896.358 1740.73V1849.89M-896.358 1740.73H-787.198M-896.358 1849.89V1959.05M-896.358 1849.89H-787.198M-896.358 1959.05V2068.21M-896.358 1959.05H-787.198M-896.358 2068.21H-787.198M-787.198 -115V-5.83961M-787.198 -115H-678.038M-787.198 -5.83961V103.321M-787.198 -5.83961H-678.038M-787.198 103.321V212.481M-787.198 103.321H-678.038M-787.198 212.481V321.642M-787.198 212.481H-678.038M-787.198 321.642V430.802M-787.198 321.642H-678.038M-787.198 430.802V539.962M-787.198 430.802H-678.038M-787.198 539.962V649.123M-787.198 539.962H-678.038M-787.198 649.123V758.283M-787.198 649.123H-678.038M-787.198 758.283V867.443M-787.198 758.283H-678.038M-787.198 867.443V976.604M-787.198 867.443H-678.038M-787.198 976.604V1085.76M-787.198 976.604H-678.038M-787.198 1085.76V1194.92M-787.198 1085.76H-678.038M-787.198 1194.92V1304.09M-787.198 1194.92H-678.038M-787.198 1304.09V1413.25M-787.198 1304.09H-678.038M-787.198 1413.25V1522.41M-787.198 1413.25H-678.038M-787.198 1522.41V1631.57M-787.198 1522.41H-678.038M-787.198 1631.57V1740.73M-787.198 1631.57H-678.038M-787.198 1740.73V1849.89M-787.198 1740.73H-678.038M-787.198 1849.89V1959.05M-787.198 1849.89H-678.038M-787.198 1959.05V2068.21M-787.198 1959.05H-678.038M-787.198 2068.21H-678.038M-678.038 -115V-5.83961M-678.038 -115H-568.877M-678.038 -5.83961V103.321M-678.038 -5.83961H-568.877M-678.038 103.321V212.481M-678.038 103.321H-568.877M-678.038 212.481V321.642M-678.038 212.481H-568.877M-678.038 321.642V430.802M-678.038 321.642H-568.877M-678.038 430.802V539.962M-678.038 430.802H-568.877M-678.038 539.962V649.123M-678.038 539.962H-568.877M-678.038 649.123V758.283M-678.038 649.123H-568.877M-678.038 758.283V867.443M-678.038 758.283H-568.877M-678.038 867.443V976.604M-678.038 867.443H-568.877M-678.038 976.604V1085.76M-678.038 976.604H-568.877M-678.038 1085.76V1194.92M-678.038 1085.76H-568.877M-678.038 1194.92V1304.09M-678.038 1194.92H-568.877M-678.038 1304.09V1413.25M-678.038 1304.09H-568.877M-678.038 1413.25V1522.41M-678.038 1413.25H-568.877M-678.038 1522.41V1631.57M-678.038 1522.41H-568.877M-678.038 1631.57V1740.73M-678.038 1631.57H-568.877M-678.038 1740.73V1849.89M-678.038 1740.73H-568.877M-678.038 1849.89V1959.05M-678.038 1849.89H-568.877M-678.038 1959.05V2068.21M-678.038 1959.05H-568.877M-678.038 2068.21H-568.877M-568.877 -115V-5.83961M-568.877 -115H-459.717M-568.877 -5.83961V103.321M-568.877 -5.83961H-459.717M-568.877 103.321V212.481M-568.877 103.321H-459.717M-568.877 212.481V321.642M-568.877 212.481H-459.717M-568.877 321.642V430.802M-568.877 321.642H-459.717M-568.877 430.802V539.962M-568.877 430.802H-459.717M-568.877 539.962V649.123M-568.877 539.962H-459.717M-568.877 649.123V758.283M-568.877 649.123H-459.717M-568.877 758.283V867.443M-568.877 758.283H-459.717M-568.877 867.443V976.604M-568.877 867.443H-459.717M-568.877 976.604V1085.76M-568.877 976.604H-459.717M-568.877 1085.76V1194.92M-568.877 1085.76H-459.717M-568.877 1194.92V1304.09M-568.877 1194.92H-459.717M-568.877 1304.09V1413.25M-568.877 1304.09H-459.717M-568.877 1413.25V1522.41M-568.877 1413.25H-459.717M-568.877 1522.41V1631.57M-568.877 1522.41H-459.717M-568.877 1631.57V1740.73M-568.877 1631.57H-459.717M-568.877 1740.73V1849.89M-568.877 1740.73H-459.717M-568.877 1849.89V1959.05M-568.877 1849.89H-459.717M-568.877 1959.05V2068.21M-568.877 1959.05H-459.717M-568.877 2068.21H-459.717M-459.717 -115V-5.83961M-459.717 -115H-350.557M-459.717 -5.83961V103.321M-459.717 -5.83961H-350.557M-459.717 103.321V212.481M-459.717 103.321H-350.557M-459.717 212.481V321.642M-459.717 212.481H-350.557M-459.717 321.642V430.802M-459.717 321.642H-350.557M-459.717 430.802V539.962M-459.717 430.802H-350.557M-459.717 539.962V649.123M-459.717 539.962H-350.557M-459.717 649.123V758.283M-459.717 649.123H-350.557M-459.717 758.283V867.443M-459.717 758.283H-350.557M-459.717 867.443V976.604M-459.717 867.443H-350.557M-459.717 976.604V1085.76M-459.717 976.604H-350.557M-459.717 1085.76V1194.92M-459.717 1085.76H-350.557M-459.717 1194.92V1304.09M-459.717 1194.92H-350.557M-459.717 1304.09V1413.25M-459.717 1304.09H-350.557M-459.717 1413.25V1522.41M-459.717 1413.25H-350.557M-459.717 1522.41V1631.57M-459.717 1522.41H-350.557M-459.717 1631.57V1740.73M-459.717 1631.57H-350.557M-459.717 1740.73V1849.89M-459.717 1740.73H-350.557M-459.717 1849.89V1959.05M-459.717 1849.89H-350.557M-459.717 1959.05V2068.21M-459.717 1959.05H-350.557M-459.717 2068.21H-350.557M-350.557 -115V-5.83961M-350.557 -115H-241.396M-350.557 -5.83961V103.321M-350.557 -5.83961H-241.396M-350.557 103.321V212.481M-350.557 103.321H-241.396M-350.557 212.481V321.642M-350.557 212.481H-241.396M-350.557 321.642V430.802M-350.557 321.642H-241.396M-350.557 430.802V539.962M-350.557 430.802H-241.396M-350.557 539.962V649.123M-350.557 539.962H-241.396M-350.557 649.123V758.283M-350.557 649.123H-241.396M-350.557 758.283V867.443M-350.557 758.283H-241.396M-350.557 867.443V976.604M-350.557 867.443H-241.396M-350.557 976.604V1085.76M-350.557 976.604H-241.396M-350.557 1085.76V1194.92M-350.557 1085.76H-241.396M-350.557 1194.92V1304.09M-350.557 1194.92H-241.396M-350.557 1304.09V1413.25M-350.557 1304.09H-241.396M-350.557 1413.25V1522.41M-350.557 1413.25H-241.396M-350.557 1522.41V1631.57M-350.557 1522.41H-241.396M-350.557 1631.57V1740.73M-350.557 1631.57H-241.396M-350.557 1740.73V1849.89M-350.557 1740.73H-241.396M-350.557 1849.89V1959.05M-350.557 1849.89H-241.396M-350.557 1959.05V2068.21M-350.557 1959.05H-241.396M-350.557 2068.21H-241.396M-241.396 -115V-5.83961M-241.396 -115H-132.236M-241.396 -5.83961V103.321M-241.396 -5.83961H-132.236M-241.396 103.321V212.481M-241.396 103.321H-132.236M-241.396 212.481V321.642M-241.396 212.481H-132.236M-241.396 321.642V430.802M-241.396 321.642H-132.236M-241.396 430.802V539.962M-241.396 430.802H-132.236M-241.396 539.962V649.123M-241.396 539.962H-132.236M-241.396 649.123V758.283M-241.396 649.123H-132.236M-241.396 758.283V867.443M-241.396 758.283H-132.236M-241.396 867.443V976.604M-241.396 867.443H-132.236M-241.396 976.604V1085.76M-241.396 976.604H-132.236M-241.396 1085.76V1194.92M-241.396 1085.76H-132.236M-241.396 1194.92V1304.09M-241.396 1194.92H-132.236M-241.396 1304.09V1413.25M-241.396 1304.09H-132.236M-241.396 1413.25V1522.41M-241.396 1413.25H-132.236M-241.396 1522.41V1631.57M-241.396 1522.41H-132.236M-241.396 1631.57V1740.73M-241.396 1631.57H-132.236M-241.396 1740.73V1849.89M-241.396 1740.73H-132.236M-241.396 1849.89V1959.05M-241.396 1849.89H-132.236M-241.396 1959.05V2068.21M-241.396 1959.05H-132.236M-241.396 2068.21H-132.236M-132.236 -115V-5.83961M-132.236 -115H-23.0755M-132.236 -5.83961V103.321M-132.236 -5.83961H-23.0755M-132.236 103.321V212.481M-132.236 103.321H-23.0755M-132.236 212.481V321.642M-132.236 212.481H-23.0755M-132.236 321.642V430.802M-132.236 321.642H-23.0755M-132.236 430.802V539.962M-132.236 430.802H-23.0755M-132.236 539.962V649.123M-132.236 539.962H-23.0755M-132.236 649.123V758.283M-132.236 649.123H-23.0755M-132.236 758.283V867.443M-132.236 758.283H-23.0755M-132.236 867.443V976.604M-132.236 867.443H-23.0755M-132.236 976.604V1085.76M-132.236 976.604H-23.0755M-132.236 1085.76V1194.92M-132.236 1085.76H-23.0755M-132.236 1194.92V1304.09M-132.236 1194.92H-23.0755M-132.236 1304.09V1413.25M-132.236 1304.09H-23.0755M-132.236 1413.25V1522.41M-132.236 1413.25H-23.0755M-132.236 1522.41V1631.57M-132.236 1522.41H-23.0755M-132.236 1631.57V1740.73M-132.236 1631.57H-23.0755M-132.236 1740.73V1849.89M-132.236 1740.73H-23.0755M-132.236 1849.89V1959.05M-132.236 1849.89H-23.0755M-132.236 1959.05V2068.21M-132.236 1959.05H-23.0755M-132.236 2068.21H-23.0755M-23.0755 -115V-5.83961M-23.0755 -115H86.0849M-23.0755 -5.83961V103.321M-23.0755 -5.83961H86.0849M-23.0755 103.321V212.481M-23.0755 103.321H86.0849M-23.0755 212.481V321.642M-23.0755 212.481H86.0849M-23.0755 321.642V430.802M-23.0755 321.642H86.0849M-23.0755 430.802V539.962M-23.0755 430.802H86.0849M-23.0755 539.962V649.123M-23.0755 539.962H86.0849M-23.0755 649.123V758.283M-23.0755 649.123H86.0849M-23.0755 758.283V867.443M-23.0755 758.283H86.0849M-23.0755 867.443V976.604M-23.0755 867.443H86.0849M-23.0755 976.604V1085.76M-23.0755 976.604H86.0849M-23.0755 1085.76V1194.92M-23.0755 1085.76H86.0849M-23.0755 1194.92V1304.09M-23.0755 1194.92H86.0849M-23.0755 1304.09V1413.25M-23.0755 1304.09H86.0849M-23.0755 1413.25V1522.41M-23.0755 1413.25H86.0849M-23.0755 1522.41V1631.57M-23.0755 1522.41H86.0849M-23.0755 1631.57V1740.73M-23.0755 1631.57H86.0849M-23.0755 1740.73V1849.89M-23.0755 1740.73H86.0849M-23.0755 1849.89V1959.05M-23.0755 1849.89H86.0849M-23.0755 1959.05V2068.21M-23.0755 1959.05H86.0849M-23.0755 2068.21H86.0849M86.0849 -115V-5.83961M86.0849 -115H195.245M86.0849 -5.83961V103.321M86.0849 -5.83961H195.245M86.0849 103.321V212.481M86.0849 103.321H195.245M86.0849 212.481V321.642M86.0849 212.481H195.245M86.0849 321.642V430.802M86.0849 321.642H195.245M86.0849 430.802V539.962M86.0849 430.802H195.245M86.0849 539.962V649.123M86.0849 539.962H195.245M86.0849 649.123V758.283M86.0849 649.123H195.245M86.0849 758.283V867.443M86.0849 758.283H195.245M86.0849 867.443V976.604M86.0849 867.443H195.245M86.0849 976.604V1085.76M86.0849 976.604H195.245M86.0849 1085.76V1194.92M86.0849 1085.76H195.245M86.0849 1194.92V1304.09M86.0849 1194.92H195.245M86.0849 1304.09V1413.25M86.0849 1304.09H195.245M86.0849 1413.25V1522.41M86.0849 1413.25H195.245M86.0849 1522.41V1631.57M86.0849 1522.41H195.245M86.0849 1631.57V1740.73M86.0849 1631.57H195.245M86.0849 1740.73V1849.89M86.0849 1740.73H195.245M86.0849 1849.89V1959.05M86.0849 1849.89H195.245M86.0849 1959.05V2068.21M86.0849 1959.05H195.245M86.0849 2068.21H195.245M195.245 -115V-5.83961M195.245 -115H304.406M195.245 -5.83961V103.321M195.245 -5.83961H304.406M195.245 103.321V212.481M195.245 103.321H304.406M195.245 212.481V321.642M195.245 212.481H304.406M195.245 321.642V430.802M195.245 321.642H304.406M195.245 430.802V539.962M195.245 430.802H304.406M195.245 539.962V649.123M195.245 539.962H304.406M195.245 649.123V758.283M195.245 649.123H304.406M195.245 758.283V867.443M195.245 758.283H304.406M195.245 867.443V976.604M195.245 867.443H304.406M195.245 976.604V1085.76M195.245 976.604H304.406M195.245 1085.76V1194.92M195.245 1085.76H304.406M195.245 1194.92V1304.09M195.245 1194.92H304.406M195.245 1304.09V1413.25M195.245 1304.09H304.406M195.245 1413.25V1522.41M195.245 1413.25H304.406M195.245 1522.41V1631.57M195.245 1522.41H304.406M195.245 1631.57V1740.73M195.245 1631.57H304.406M195.245 1740.73V1849.89M195.245 1740.73H304.406M195.245 1849.89V1959.05M195.245 1849.89H304.406M195.245 1959.05V2068.21M195.245 1959.05H304.406M195.245 2068.21H304.406M304.406 -115V-5.83961M304.406 -115H413.566M304.406 -5.83961V103.321M304.406 -5.83961H413.566M304.406 103.321V212.481M304.406 103.321H413.566M304.406 212.481V321.642M304.406 212.481H413.566M304.406 321.642V430.802M304.406 321.642H413.566M304.406 430.802V539.962M304.406 430.802H413.566M304.406 539.962V649.123M304.406 539.962H413.566M304.406 649.123V758.283M304.406 649.123H413.566M304.406 758.283V867.443M304.406 758.283H413.566M304.406 867.443V976.604M304.406 867.443H413.566M304.406 976.604V1085.76M304.406 976.604H413.566M304.406 1085.76V1194.92M304.406 1085.76H413.566M304.406 1194.92V1304.09M304.406 1194.92H413.566M304.406 1304.09V1413.25M304.406 1304.09H413.566M304.406 1413.25V1522.41M304.406 1413.25H413.566M304.406 1522.41V1631.57M304.406 1522.41H413.566M304.406 1631.57V1740.73M304.406 1631.57H413.566M304.406 1740.73V1849.89M304.406 1740.73H413.566M304.406 1849.89V1959.05M304.406 1849.89H413.566M304.406 1959.05V2068.21M304.406 1959.05H413.566M304.406 2068.21H413.566M413.566 -115V-5.83961M413.566 -115H522.726M413.566 -5.83961V103.321M413.566 -5.83961H522.726M413.566 103.321V212.481M413.566 103.321H522.726M413.566 212.481V321.642M413.566 212.481H522.726M413.566 321.642V430.802M413.566 321.642H522.726M413.566 430.802V539.962M413.566 430.802H522.726M413.566 539.962V649.123M413.566 539.962H522.726M413.566 649.123V758.283M413.566 649.123H522.726M413.566 758.283V867.443M413.566 758.283H522.726M413.566 867.443V976.604M413.566 867.443H522.726M413.566 976.604V1085.76M413.566 976.604H522.726M413.566 1085.76V1194.92M413.566 1085.76H522.726M413.566 1194.92V1304.09M413.566 1194.92H522.726M413.566 1304.09V1413.25M413.566 1304.09H522.726M413.566 1413.25V1522.41M413.566 1413.25H522.726M413.566 1522.41V1631.57M413.566 1522.41H522.726M413.566 1631.57V1740.73M413.566 1631.57H522.726M413.566 1740.73V1849.89M413.566 1740.73H522.726M413.566 1849.89V1959.05M413.566 1849.89H522.726M413.566 1959.05V2068.21M413.566 1959.05H522.726M413.566 2068.21H522.726M522.726 -115V-5.83961M522.726 -115H631.887M522.726 -5.83961V103.321M522.726 -5.83961H631.887M522.726 103.321V212.481M522.726 103.321H631.887M522.726 212.481V321.642M522.726 212.481H631.887M522.726 321.642V430.802M522.726 321.642H631.887M522.726 430.802V539.962M522.726 430.802H631.887M522.726 539.962V649.123M522.726 539.962H631.887M522.726 649.123V758.283M522.726 649.123H631.887M522.726 758.283V867.443M522.726 758.283H631.887M522.726 867.443V976.604M522.726 867.443H631.887M522.726 976.604V1085.76M522.726 976.604H631.887M522.726 1085.76V1194.92M522.726 1085.76H631.887M522.726 1194.92V1304.09M522.726 1194.92H631.887M522.726 1304.09V1413.25M522.726 1304.09H631.887M522.726 1413.25V1522.41M522.726 1413.25H631.887M522.726 1522.41V1631.57M522.726 1522.41H631.887M522.726 1631.57V1740.73M522.726 1631.57H631.887M522.726 1740.73V1849.89M522.726 1740.73H631.887M522.726 1849.89V1959.05M522.726 1849.89H631.887M522.726 1959.05V2068.21M522.726 1959.05H631.887M522.726 2068.21H631.887M631.887 -115V-5.83961M631.887 -115H741.047M631.887 -5.83961V103.321M631.887 -5.83961H741.047M631.887 103.321V212.481M631.887 103.321H741.047M631.887 212.481V321.642M631.887 212.481H741.047M631.887 321.642V430.802M631.887 321.642H741.047M631.887 430.802V539.962M631.887 430.802H741.047M631.887 539.962V649.123M631.887 539.962H741.047M631.887 649.123V758.283M631.887 649.123H741.047M631.887 758.283V867.443M631.887 758.283H741.047M631.887 867.443V976.604M631.887 867.443H741.047M631.887 976.604V1085.76M631.887 976.604H741.047M631.887 1085.76V1194.92M631.887 1085.76H741.047M631.887 1194.92V1304.09M631.887 1194.92H741.047M631.887 1304.09V1413.25M631.887 1304.09H741.047M631.887 1413.25V1522.41M631.887 1413.25H741.047M631.887 1522.41V1631.57M631.887 1522.41H741.047M631.887 1631.57V1740.73M631.887 1631.57H741.047M631.887 1740.73V1849.89M631.887 1740.73H741.047M631.887 1849.89V1959.05M631.887 1849.89H741.047M631.887 1959.05V2068.21M631.887 1959.05H741.047M631.887 2068.21H741.047M741.047 -115V-5.83961M741.047 -115H850.208M741.047 -5.83961V103.321M741.047 -5.83961H850.208M741.047 103.321V212.481M741.047 103.321H850.208M741.047 212.481V321.642M741.047 212.481H850.208M741.047 321.642V430.802M741.047 321.642H850.208M741.047 430.802V539.962M741.047 430.802H850.208M741.047 539.962V649.123M741.047 539.962H850.208M741.047 649.123V758.283M741.047 649.123H850.208M741.047 758.283V867.443M741.047 758.283H850.208M741.047 867.443V976.604M741.047 867.443H850.208M741.047 976.604V1085.76M741.047 976.604H850.208M741.047 1085.76V1194.92M741.047 1085.76H850.208M741.047 1194.92V1304.09M741.047 1194.92H850.208M741.047 1304.09V1413.25M741.047 1304.09H850.208M741.047 1413.25V1522.41M741.047 1413.25H850.208M741.047 1522.41V1631.57M741.047 1522.41H850.208M741.047 1631.57V1740.73M741.047 1631.57H850.208M741.047 1740.73V1849.89M741.047 1740.73H850.208M741.047 1849.89V1959.05M741.047 1849.89H850.208M741.047 1959.05V2068.21M741.047 1959.05H850.208M741.047 2068.21H850.208M850.208 -115V-5.83961M850.208 -115H959.368M850.208 -5.83961V103.321M850.208 -5.83961H959.368M850.208 103.321V212.481M850.208 103.321H959.368M850.208 212.481V321.642M850.208 212.481H959.368M850.208 321.642V430.802M850.208 321.642H959.368M850.208 430.802V539.962M850.208 430.802H959.368M850.208 539.962V649.123M850.208 539.962H959.368M850.208 649.123V758.283M850.208 649.123H959.368M850.208 758.283V867.443M850.208 758.283H959.368M850.208 867.443V976.604M850.208 867.443H959.368M850.208 976.604V1085.76M850.208 976.604H959.368M850.208 1085.76V1194.92M850.208 1085.76H959.368M850.208 1194.92V1304.09M850.208 1194.92H959.368M850.208 1304.09V1413.25M850.208 1304.09H959.368M850.208 1413.25V1522.41M850.208 1413.25H959.368M850.208 1522.41V1631.57M850.208 1522.41H959.368M850.208 1631.57V1740.73M850.208 1631.57H959.368M850.208 1740.73V1849.89M850.208 1740.73H959.368M850.208 1849.89V1959.05M850.208 1849.89H959.368M850.208 1959.05V2068.21M850.208 1959.05H959.368M850.208 2068.21H959.368M959.368 -115V-5.83961M959.368 -115H1068.53M959.368 -5.83961V103.321M959.368 -5.83961H1068.53M959.368 103.321V212.481M959.368 103.321H1068.53M959.368 212.481V321.642M959.368 212.481H1068.53M959.368 321.642V430.802M959.368 321.642H1068.53M959.368 430.802V539.962M959.368 430.802H1068.53M959.368 539.962V649.123M959.368 539.962H1068.53M959.368 649.123V758.283M959.368 649.123H1068.53M959.368 758.283V867.443M959.368 758.283H1068.53M959.368 867.443V976.604M959.368 867.443H1068.53M959.368 976.604V1085.76M959.368 976.604H1068.53M959.368 1085.76V1194.92M959.368 1085.76H1068.53M959.368 1194.92V1304.09M959.368 1194.92H1068.53M959.368 1304.09V1413.25M959.368 1304.09H1068.53M959.368 1413.25V1522.41M959.368 1413.25H1068.53M959.368 1522.41V1631.57M959.368 1522.41H1068.53M959.368 1631.57V1740.73M959.368 1631.57H1068.53M959.368 1740.73V1849.89M959.368 1740.73H1068.53M959.368 1849.89V1959.05M959.368 1849.89H1068.53M959.368 1959.05V2068.21M959.368 1959.05H1068.53M959.368 2068.21H1068.53M1068.53 -115V-5.83961M1068.53 -115H1177.69M1068.53 -5.83961V103.321M1068.53 -5.83961H1177.69M1068.53 103.321V212.481M1068.53 103.321H1177.69M1068.53 212.481V321.642M1068.53 212.481H1177.69M1068.53 321.642V430.802M1068.53 321.642H1177.69M1068.53 430.802V539.962M1068.53 430.802H1177.69M1068.53 539.962V649.123M1068.53 539.962H1177.69M1068.53 649.123V758.283M1068.53 649.123H1177.69M1068.53 758.283V867.443M1068.53 758.283H1177.69M1068.53 867.443V976.604M1068.53 867.443H1177.69M1068.53 976.604V1085.76M1068.53 976.604H1177.69M1068.53 1085.76V1194.92M1068.53 1085.76H1177.69M1068.53 1194.92V1304.09M1068.53 1194.92H1177.69M1068.53 1304.09V1413.25M1068.53 1304.09H1177.69M1068.53 1413.25V1522.41M1068.53 1413.25H1177.69M1068.53 1522.41V1631.57M1068.53 1522.41H1177.69M1068.53 1631.57V1740.73M1068.53 1631.57H1177.69M1068.53 1740.73V1849.89M1068.53 1740.73H1177.69M1068.53 1849.89V1959.05M1068.53 1849.89H1177.69M1068.53 1959.05V2068.21M1068.53 1959.05H1177.69M1068.53 2068.21H1177.69M1177.69 -115V-5.83961M1177.69 -115H1286.85M1177.69 -5.83961V103.321M1177.69 -5.83961H1286.85M1177.69 103.321V212.481M1177.69 103.321H1286.85M1177.69 212.481V321.642M1177.69 212.481H1286.85M1177.69 321.642V430.802M1177.69 321.642H1286.85M1177.69 430.802V539.962M1177.69 430.802H1286.85M1177.69 539.962V649.123M1177.69 539.962H1286.85M1177.69 649.123V758.283M1177.69 649.123H1286.85M1177.69 758.283V867.443M1177.69 758.283H1286.85M1177.69 867.443V976.604M1177.69 867.443H1286.85M1177.69 976.604V1085.76M1177.69 976.604H1286.85M1177.69 1085.76V1194.92M1177.69 1085.76H1286.85M1177.69 1194.92V1304.09M1177.69 1194.92H1286.85M1177.69 1304.09V1413.25M1177.69 1304.09H1286.85M1177.69 1413.25V1522.41M1177.69 1413.25H1286.85M1177.69 1522.41V1631.57M1177.69 1522.41H1286.85M1177.69 1631.57V1740.73M1177.69 1631.57H1286.85M1177.69 1740.73V1849.89M1177.69 1740.73H1286.85M1177.69 1849.89V1959.05M1177.69 1849.89H1286.85M1177.69 1959.05V2068.21M1177.69 1959.05H1286.85M1177.69 2068.21H1286.85M1286.85 -115V-5.83961M1286.85 -115H1396.01M1286.85 -5.83961V103.321M1286.85 -5.83961H1396.01M1286.85 103.321V212.481M1286.85 103.321H1396.01M1286.85 212.481V321.642M1286.85 212.481H1396.01M1286.85 321.642V430.802M1286.85 321.642H1396.01M1286.85 430.802V539.962M1286.85 430.802H1396.01M1286.85 539.962V649.123M1286.85 539.962H1396.01M1286.85 649.123V758.283M1286.85 649.123H1396.01M1286.85 758.283V867.443M1286.85 758.283H1396.01M1286.85 867.443V976.604M1286.85 867.443H1396.01M1286.85 976.604V1085.76M1286.85 976.604H1396.01M1286.85 1085.76V1194.92M1286.85 1085.76H1396.01M1286.85 1194.92V1304.09M1286.85 1194.92H1396.01M1286.85 1304.09V1413.25M1286.85 1304.09H1396.01M1286.85 1413.25V1522.41M1286.85 1413.25H1396.01M1286.85 1522.41V1631.57M1286.85 1522.41H1396.01M1286.85 1631.57V1740.73M1286.85 1631.57H1396.01M1286.85 1740.73V1849.89M1286.85 1740.73H1396.01M1286.85 1849.89V1959.05M1286.85 1849.89H1396.01M1286.85 1959.05V2068.21M1286.85 1959.05H1396.01M1286.85 2068.21H1396.01M1396.01 -115V-5.83961M1396.01 -115H1505.17M1396.01 -5.83961V103.321M1396.01 -5.83961H1505.17M1396.01 103.321V212.481M1396.01 103.321H1505.17M1396.01 212.481V321.642M1396.01 212.481H1505.17M1396.01 321.642V430.802M1396.01 321.642H1505.17M1396.01 430.802V539.962M1396.01 430.802H1505.17M1396.01 539.962V649.123M1396.01 539.962H1505.17M1396.01 649.123V758.283M1396.01 649.123H1505.17M1396.01 758.283V867.443M1396.01 758.283H1505.17M1396.01 867.443V976.604M1396.01 867.443H1505.17M1396.01 976.604V1085.76M1396.01 976.604H1505.17M1396.01 1085.76V1194.92M1396.01 1085.76H1505.17M1396.01 1194.92V1304.09M1396.01 1194.92H1505.17M1396.01 1304.09V1413.25M1396.01 1304.09H1505.17M1396.01 1413.25V1522.41M1396.01 1413.25H1505.17M1396.01 1522.41V1631.57M1396.01 1522.41H1505.17M1396.01 1631.57V1740.73M1396.01 1631.57H1505.17M1396.01 1740.73V1849.89M1396.01 1740.73H1505.17M1396.01 1849.89V1959.05M1396.01 1849.89H1505.17M1396.01 1959.05V2068.21M1396.01 1959.05H1505.17M1396.01 2068.21H1505.17M1505.17 -115V-5.83961M1505.17 -115H1614.33M1505.17 -5.83961V103.321M1505.17 -5.83961H1614.33M1505.17 103.321V212.481M1505.17 103.321H1614.33M1505.17 212.481V321.642M1505.17 212.481H1614.33M1505.17 321.642V430.802M1505.17 321.642H1614.33M1505.17 430.802V539.962M1505.17 430.802H1614.33M1505.17 539.962V649.123M1505.17 539.962H1614.33M1505.17 649.123V758.283M1505.17 649.123H1614.33M1505.17 758.283V867.443M1505.17 758.283H1614.33M1505.17 867.443V976.604M1505.17 867.443H1614.33M1505.17 976.604V1085.76M1505.17 976.604H1614.33M1505.17 1085.76V1194.92M1505.17 1085.76H1614.33M1505.17 1194.92V1304.09M1505.17 1194.92H1614.33M1505.17 1304.09V1413.25M1505.17 1304.09H1614.33M1505.17 1413.25V1522.41M1505.17 1413.25H1614.33M1505.17 1522.41V1631.57M1505.17 1522.41H1614.33M1505.17 1631.57V1740.73M1505.17 1631.57H1614.33M1505.17 1740.73V1849.89M1505.17 1740.73H1614.33M1505.17 1849.89V1959.05M1505.17 1849.89H1614.33M1505.17 1959.05V2068.21M1505.17 1959.05H1614.33M1505.17 2068.21H1614.33M1614.33 -115V-5.83961M1614.33 -115H1723.49M1614.33 -5.83961V103.321M1614.33 -5.83961H1723.49M1614.33 103.321V212.481M1614.33 103.321H1723.49M1614.33 212.481V321.642M1614.33 212.481H1723.49M1614.33 321.642V430.802M1614.33 321.642H1723.49M1614.33 430.802V539.962M1614.33 430.802H1723.49M1614.33 539.962V649.123M1614.33 539.962H1723.49M1614.33 649.123V758.283M1614.33 649.123H1723.49M1614.33 758.283V867.443M1614.33 758.283H1723.49M1614.33 867.443V976.604M1614.33 867.443H1723.49M1614.33 976.604V1085.76M1614.33 976.604H1723.49M1614.33 1085.76V1194.92M1614.33 1085.76H1723.49M1614.33 1194.92V1304.09M1614.33 1194.92H1723.49M1614.33 1304.09V1413.25M1614.33 1304.09H1723.49M1614.33 1413.25V1522.41M1614.33 1413.25H1723.49M1614.33 1522.41V1631.57M1614.33 1522.41H1723.49M1614.33 1631.57V1740.73M1614.33 1631.57H1723.49M1614.33 1740.73V1849.89M1614.33 1740.73H1723.49M1614.33 1849.89V1959.05M1614.33 1849.89H1723.49M1614.33 1959.05V2068.21M1614.33 1959.05H1723.49M1614.33 2068.21H1723.49M1723.49 -115V-5.83961M1723.49 -115H1832.65M1723.49 -5.83961V103.321M1723.49 -5.83961H1832.65M1723.49 103.321V212.481M1723.49 103.321H1832.65M1723.49 212.481V321.642M1723.49 212.481H1832.65M1723.49 321.642V430.802M1723.49 321.642H1832.65M1723.49 430.802V539.962M1723.49 430.802H1832.65M1723.49 539.962V649.123M1723.49 539.962H1832.65M1723.49 649.123V758.283M1723.49 649.123H1832.65M1723.49 758.283V867.443M1723.49 758.283H1832.65M1723.49 867.443V976.604M1723.49 867.443H1832.65M1723.49 976.604V1085.76M1723.49 976.604H1832.65M1723.49 1085.76V1194.92M1723.49 1085.76H1832.65M1723.49 1194.92V1304.09M1723.49 1194.92H1832.65M1723.49 1304.09V1413.25M1723.49 1304.09H1832.65M1723.49 1413.25V1522.41M1723.49 1413.25H1832.65M1723.49 1522.41V1631.57M1723.49 1522.41H1832.65M1723.49 1631.57V1740.73M1723.49 1631.57H1832.65M1723.49 1740.73V1849.89M1723.49 1740.73H1832.65M1723.49 1849.89V1959.05M1723.49 1849.89H1832.65M1723.49 1959.05V2068.21M1723.49 1959.05H1832.65M1723.49 2068.21H1832.65M1832.65 -115V-5.83961M1832.65 -115H1941.81M1832.65 -5.83961V103.321M1832.65 -5.83961H1941.81M1832.65 103.321V212.481M1832.65 103.321H1941.81M1832.65 212.481V321.642M1832.65 212.481H1941.81M1832.65 321.642V430.802M1832.65 321.642H1941.81M1832.65 430.802V539.962M1832.65 430.802H1941.81M1832.65 539.962V649.123M1832.65 539.962H1941.81M1832.65 649.123V758.283M1832.65 649.123H1941.81M1832.65 758.283V867.443M1832.65 758.283H1941.81M1832.65 867.443V976.604M1832.65 867.443H1941.81M1832.65 976.604V1085.76M1832.65 976.604H1941.81M1832.65 1085.76V1194.92M1832.65 1085.76H1941.81M1832.65 1194.92V1304.09M1832.65 1194.92H1941.81M1832.65 1304.09V1413.25M1832.65 1304.09H1941.81M1832.65 1413.25V1522.41M1832.65 1413.25H1941.81M1832.65 1522.41V1631.57M1832.65 1522.41H1941.81M1832.65 1631.57V1740.73M1832.65 1631.57H1941.81M1832.65 1740.73V1849.89M1832.65 1740.73H1941.81M1832.65 1849.89V1959.05M1832.65 1849.89H1941.81M1832.65 1959.05V2068.21M1832.65 1959.05H1941.81M1832.65 2068.21H1941.81M1941.81 -115V-5.83961M1941.81 -115H2050.97M1941.81 -5.83961V103.321M1941.81 -5.83961H2050.97M1941.81 103.321V212.481M1941.81 103.321H2050.97M1941.81 212.481V321.642M1941.81 212.481H2050.97M1941.81 321.642V430.802M1941.81 321.642H2050.97M1941.81 430.802V539.962M1941.81 430.802H2050.97M1941.81 539.962V649.123M1941.81 539.962H2050.97M1941.81 649.123V758.283M1941.81 649.123H2050.97M1941.81 758.283V867.443M1941.81 758.283H2050.97M1941.81 867.443V976.604M1941.81 867.443H2050.97M1941.81 976.604V1085.76M1941.81 976.604H2050.97M1941.81 1085.76V1194.92M1941.81 1085.76H2050.97M1941.81 1194.92V1304.09M1941.81 1194.92H2050.97M1941.81 1304.09V1413.25M1941.81 1304.09H2050.97M1941.81 1413.25V1522.41M1941.81 1413.25H2050.97M1941.81 1522.41V1631.57M1941.81 1522.41H2050.97M1941.81 1631.57V1740.73M1941.81 1631.57H2050.97M1941.81 1740.73V1849.89M1941.81 1740.73H2050.97M1941.81 1849.89V1959.05M1941.81 1849.89H2050.97M1941.81 1959.05V2068.21M1941.81 1959.05H2050.97M1941.81 2068.21H2050.97M2050.97 -115V-5.83961M2050.97 -115H2160.13M2050.97 -5.83961V103.321M2050.97 -5.83961H2160.13M2050.97 103.321V212.481M2050.97 103.321H2160.13M2050.97 212.481V321.642M2050.97 212.481H2160.13M2050.97 321.642V430.802M2050.97 321.642H2160.13M2050.97 430.802V539.962M2050.97 430.802H2160.13M2050.97 539.962V649.123M2050.97 539.962H2160.13M2050.97 649.123V758.283M2050.97 649.123H2160.13M2050.97 758.283V867.443M2050.97 758.283H2160.13M2050.97 867.443V976.604M2050.97 867.443H2160.13M2050.97 976.604V1085.76M2050.97 976.604H2160.13M2050.97 1085.76V1194.92M2050.97 1085.76H2160.13M2050.97 1194.92V1304.09M2050.97 1194.92H2160.13M2050.97 1304.09V1413.25M2050.97 1304.09H2160.13M2050.97 1413.25V1522.41M2050.97 1413.25H2160.13M2050.97 1522.41V1631.57M2050.97 1522.41H2160.13M2050.97 1631.57V1740.73M2050.97 1631.57H2160.13M2050.97 1740.73V1849.89M2050.97 1740.73H2160.13M2050.97 1849.89V1959.05M2050.97 1849.89H2160.13M2050.97 1959.05V2068.21M2050.97 1959.05H2160.13M2050.97 2068.21H2160.13M2160.13 -115V-5.83961M2160.13 -115H2269.29M2160.13 -5.83961V103.321M2160.13 -5.83961H2269.29M2160.13 103.321V212.481M2160.13 103.321H2269.29M2160.13 212.481V321.642M2160.13 212.481H2269.29M2160.13 321.642V430.802M2160.13 321.642H2269.29M2160.13 430.802V539.962M2160.13 430.802H2269.29M2160.13 539.962V649.123M2160.13 539.962H2269.29M2160.13 649.123V758.283M2160.13 649.123H2269.29M2160.13 758.283V867.443M2160.13 758.283H2269.29M2160.13 867.443V976.604M2160.13 867.443H2269.29M2160.13 976.604V1085.76M2160.13 976.604H2269.29M2160.13 1085.76V1194.92M2160.13 1085.76H2269.29M2160.13 1194.92V1304.09M2160.13 1194.92H2269.29M2160.13 1304.09V1413.25M2160.13 1304.09H2269.29M2160.13 1413.25V1522.41M2160.13 1413.25H2269.29M2160.13 1522.41V1631.57M2160.13 1522.41H2269.29M2160.13 1631.57V1740.73M2160.13 1631.57H2269.29M2160.13 1740.73V1849.89M2160.13 1740.73H2269.29M2160.13 1849.89V1959.05M2160.13 1849.89H2269.29M2160.13 1959.05V2068.21M2160.13 1959.05H2269.29M2160.13 2068.21H2269.29M2269.29 -115V-5.83961M2269.29 -115H2378.45M2269.29 -5.83961V103.321M2269.29 -5.83961H2378.45M2269.29 103.321V212.481M2269.29 103.321H2378.45M2269.29 212.481V321.642M2269.29 212.481H2378.45M2269.29 321.642V430.802M2269.29 321.642H2378.45M2269.29 430.802V539.962M2269.29 430.802H2378.45M2269.29 539.962V649.123M2269.29 539.962H2378.45M2269.29 649.123V758.283M2269.29 649.123H2378.45M2269.29 758.283V867.443M2269.29 758.283H2378.45M2269.29 867.443V976.604M2269.29 867.443H2378.45M2269.29 976.604V1085.76M2269.29 976.604H2378.45M2269.29 1085.76V1194.92M2269.29 1085.76H2378.45M2269.29 1194.92V1304.09M2269.29 1194.92H2378.45M2269.29 1304.09V1413.25M2269.29 1304.09H2378.45M2269.29 1413.25V1522.41M2269.29 1413.25H2378.45M2269.29 1522.41V1631.57M2269.29 1522.41H2378.45M2269.29 1631.57V1740.73M2269.29 1631.57H2378.45M2269.29 1740.73V1849.89M2269.29 1740.73H2378.45M2269.29 1849.89V1959.05M2269.29 1849.89H2378.45M2269.29 1959.05V2068.21M2269.29 1959.05H2378.45M2269.29 2068.21H2378.45M2378.45 -115V-5.83961M2378.45 -115H2487.61M2378.45 -5.83961V103.321M2378.45 -5.83961H2487.61M2378.45 103.321V212.481M2378.45 103.321H2487.61M2378.45 212.481V321.642M2378.45 212.481H2487.61M2378.45 321.642V430.802M2378.45 321.642H2487.61M2378.45 430.802V539.962M2378.45 430.802H2487.61M2378.45 539.962V649.123M2378.45 539.962H2487.61M2378.45 649.123V758.283M2378.45 649.123H2487.61M2378.45 758.283V867.443M2378.45 758.283H2487.61M2378.45 867.443V976.604M2378.45 867.443H2487.61M2378.45 976.604V1085.76M2378.45 976.604H2487.61M2378.45 1085.76V1194.92M2378.45 1085.76H2487.61M2378.45 1194.92V1304.09M2378.45 1194.92H2487.61M2378.45 1304.09V1413.25M2378.45 1304.09H2487.61M2378.45 1413.25V1522.41M2378.45 1413.25H2487.61M2378.45 1522.41V1631.57M2378.45 1522.41H2487.61M2378.45 1631.57V1740.73M2378.45 1631.57H2487.61M2378.45 1740.73V1849.89M2378.45 1740.73H2487.61M2378.45 1849.89V1959.05M2378.45 1849.89H2487.61M2378.45 1959.05V2068.21M2378.45 1959.05H2487.61M2378.45 2068.21H2487.61M2487.61 -115V-5.83961M2487.61 -115H2596.77M2487.61 -5.83961V103.321M2487.61 -5.83961H2596.77M2487.61 103.321V212.481M2487.61 103.321H2596.77M2487.61 212.481V321.642M2487.61 212.481H2596.77M2487.61 321.642V430.802M2487.61 321.642H2596.77M2487.61 430.802V539.962M2487.61 430.802H2596.77M2487.61 539.962V649.123M2487.61 539.962H2596.77M2487.61 649.123V758.283M2487.61 649.123H2596.77M2487.61 758.283V867.443M2487.61 758.283H2596.77M2487.61 867.443V976.604M2487.61 867.443H2596.77M2487.61 976.604V1085.76M2487.61 976.604H2596.77M2487.61 1085.76V1194.92M2487.61 1085.76H2596.77M2487.61 1194.92V1304.09M2487.61 1194.92H2596.77M2487.61 1304.09V1413.25M2487.61 1304.09H2596.77M2487.61 1413.25V1522.41M2487.61 1413.25H2596.77M2487.61 1522.41V1631.57M2487.61 1522.41H2596.77M2487.61 1631.57V1740.73M2487.61 1631.57H2596.77M2487.61 1740.73V1849.89M2487.61 1740.73H2596.77M2487.61 1849.89V1959.05M2487.61 1849.89H2596.77M2487.61 1959.05V2068.21M2487.61 1959.05H2596.77M2487.61 2068.21H2596.77M2596.77 -115V-5.83961M2596.77 -115H2705.93M2596.77 -5.83961V103.321M2596.77 -5.83961H2705.93M2596.77 103.321V212.481M2596.77 103.321H2705.93M2596.77 212.481V321.642M2596.77 212.481H2705.93M2596.77 321.642V430.802M2596.77 321.642H2705.93M2596.77 430.802V539.962M2596.77 430.802H2705.93M2596.77 539.962V649.123M2596.77 539.962H2705.93M2596.77 649.123V758.283M2596.77 649.123H2705.93M2596.77 758.283V867.443M2596.77 758.283H2705.93M2596.77 867.443V976.604M2596.77 867.443H2705.93M2596.77 976.604V1085.76M2596.77 976.604H2705.93M2596.77 1085.76V1194.92M2596.77 1085.76H2705.93M2596.77 1194.92V1304.09M2596.77 1194.92H2705.93M2596.77 1304.09V1413.25M2596.77 1304.09H2705.93M2596.77 1413.25V1522.41M2596.77 1413.25H2705.93M2596.77 1522.41V1631.57M2596.77 1522.41H2705.93M2596.77 1631.57V1740.73M2596.77 1631.57H2705.93M2596.77 1740.73V1849.89M2596.77 1740.73H2705.93M2596.77 1849.89V1959.05M2596.77 1849.89H2705.93M2596.77 1959.05V2068.21M2596.77 1959.05H2705.93M2596.77 2068.21H2705.93M2705.93 -115V-5.83961M2705.93 -115H2815.09M2705.93 -5.83961V103.321M2705.93 -5.83961H2815.09M2705.93 103.321V212.481M2705.93 103.321H2815.09M2705.93 212.481V321.642M2705.93 212.481H2815.09M2705.93 321.642V430.802M2705.93 321.642H2815.09M2705.93 430.802V539.962M2705.93 430.802H2815.09M2705.93 539.962V649.123M2705.93 539.962H2815.09M2705.93 649.123V758.283M2705.93 649.123H2815.09M2705.93 758.283V867.443M2705.93 758.283H2815.09M2705.93 867.443V976.604M2705.93 867.443H2815.09M2705.93 976.604V1085.76M2705.93 976.604H2815.09M2705.93 1085.76V1194.92M2705.93 1085.76H2815.09M2705.93 1194.92V1304.09M2705.93 1194.92H2815.09M2705.93 1304.09V1413.25M2705.93 1304.09H2815.09M2705.93 1413.25V1522.41M2705.93 1413.25H2815.09M2705.93 1522.41V1631.57M2705.93 1522.41H2815.09M2705.93 1631.57V1740.73M2705.93 1631.57H2815.09M2705.93 1740.73V1849.89M2705.93 1740.73H2815.09M2705.93 1849.89V1959.05M2705.93 1849.89H2815.09M2705.93 1959.05V2068.21M2705.93 1959.05H2815.09M2705.93 2068.21H2815.09M2815.09 -115V-5.83961M2815.09 -115H2924.25M2815.09 -5.83961V103.321M2815.09 -5.83961H2924.25M2815.09 103.321V212.481M2815.09 103.321H2924.25M2815.09 212.481V321.642M2815.09 212.481H2924.25M2815.09 321.642V430.802M2815.09 321.642H2924.25M2815.09 430.802V539.962M2815.09 430.802H2924.25M2815.09 539.962V649.123M2815.09 539.962H2924.25M2815.09 649.123V758.283M2815.09 649.123H2924.25M2815.09 758.283V867.443M2815.09 758.283H2924.25M2815.09 867.443V976.604M2815.09 867.443H2924.25M2815.09 976.604V1085.76M2815.09 976.604H2924.25M2815.09 1085.76V1194.92M2815.09 1085.76H2924.25M2815.09 1194.92V1304.09M2815.09 1194.92H2924.25M2815.09 1304.09V1413.25M2815.09 1304.09H2924.25M2815.09 1413.25V1522.41M2815.09 1413.25H2924.25M2815.09 1522.41V1631.57M2815.09 1522.41H2924.25M2815.09 1631.57V1740.73M2815.09 1631.57H2924.25M2815.09 1740.73V1849.89M2815.09 1740.73H2924.25M2815.09 1849.89V1959.05M2815.09 1849.89H2924.25M2815.09 1959.05V2068.21M2815.09 1959.05H2924.25M2815.09 2068.21H2924.25M2924.25 -115V-5.83961M2924.25 -115H3033.42M2924.25 -5.83961V103.321M2924.25 -5.83961H3033.42M2924.25 103.321V212.481M2924.25 103.321H3033.42M2924.25 212.481V321.642M2924.25 212.481H3033.42M2924.25 321.642V430.802M2924.25 321.642H3033.42M2924.25 430.802V539.962M2924.25 430.802H3033.42M2924.25 539.962V649.123M2924.25 539.962H3033.42M2924.25 649.123V758.283M2924.25 649.123H3033.42M2924.25 758.283V867.443M2924.25 758.283H3033.42M2924.25 867.443V976.604M2924.25 867.443H3033.42M2924.25 976.604V1085.76M2924.25 976.604H3033.42M2924.25 1085.76V1194.92M2924.25 1085.76H3033.42M2924.25 1194.92V1304.09M2924.25 1194.92H3033.42M2924.25 1304.09V1413.25M2924.25 1304.09H3033.42M2924.25 1413.25V1522.41M2924.25 1413.25H3033.42M2924.25 1522.41V1631.57M2924.25 1522.41H3033.42M2924.25 1631.57V1740.73M2924.25 1631.57H3033.42M2924.25 1740.73V1849.89M2924.25 1740.73H3033.42M2924.25 1849.89V1959.05M2924.25 1849.89H3033.42M2924.25 1959.05V2068.21M2924.25 1959.05H3033.42M2924.25 2068.21H3033.42M3033.42 -115V-5.83961M3033.42 -115H3142.58M3033.42 -5.83961V103.321M3033.42 -5.83961H3142.58M3033.42 103.321V212.481M3033.42 103.321H3142.58M3033.42 212.481V321.642M3033.42 212.481H3142.58M3033.42 321.642V430.802M3033.42 321.642H3142.58M3033.42 430.802V539.962M3033.42 430.802H3142.58M3033.42 539.962V649.123M3033.42 539.962H3142.58M3033.42 649.123V758.283M3033.42 649.123H3142.58M3033.42 758.283V867.443M3033.42 758.283H3142.58M3033.42 867.443V976.604M3033.42 867.443H3142.58M3033.42 976.604V1085.76M3033.42 976.604H3142.58M3033.42 1085.76V1194.92M3033.42 1085.76H3142.58M3033.42 1194.92V1304.09M3033.42 1194.92H3142.58M3033.42 1304.09V1413.25M3033.42 1304.09H3142.58M3033.42 1413.25V1522.41M3033.42 1413.25H3142.58M3033.42 1522.41V1631.57M3033.42 1522.41H3142.58M3033.42 1631.57V1740.73M3033.42 1631.57H3142.58M3033.42 1740.73V1849.89M3033.42 1740.73H3142.58M3033.42 1849.89V1959.05M3033.42 1849.89H3142.58M3033.42 1959.05V2068.21M3033.42 1959.05H3142.58M3033.42 2068.21H3142.58M3142.58 -115V-5.83961M3142.58 -115H3251.74M3142.58 -5.83961V103.321M3142.58 -5.83961H3251.74M3142.58 103.321V212.481M3142.58 103.321H3251.74M3142.58 212.481V321.642M3142.58 212.481H3251.74M3142.58 321.642V430.802M3142.58 321.642H3251.74M3142.58 430.802V539.962M3142.58 430.802H3251.74M3142.58 539.962V649.123M3142.58 539.962H3251.74M3142.58 649.123V758.283M3142.58 649.123H3251.74M3142.58 758.283V867.443M3142.58 758.283H3251.74M3142.58 867.443V976.604M3142.58 867.443H3251.74M3142.58 976.604V1085.76M3142.58 976.604H3251.74M3142.58 1085.76V1194.92M3142.58 1085.76H3251.74M3142.58 1194.92V1304.09M3142.58 1194.92H3251.74M3142.58 1304.09V1413.25M3142.58 1304.09H3251.74M3142.58 1413.25V1522.41M3142.58 1413.25H3251.74M3142.58 1522.41V1631.57M3142.58 1522.41H3251.74M3142.58 1631.57V1740.73M3142.58 1631.57H3251.74M3142.58 1740.73V1849.89M3142.58 1740.73H3251.74M3142.58 1849.89V1959.05M3142.58 1849.89H3251.74M3142.58 1959.05V2068.21M3142.58 1959.05H3251.74M3142.58 2068.21H3251.74M3251.74 -115V-5.83961M3251.74 -115H3360.9M3251.74 -5.83961V103.321M3251.74 -5.83961H3360.9M3251.74 103.321V212.481M3251.74 103.321H3360.9M3251.74 212.481V321.642M3251.74 212.481H3360.9M3251.74 321.642V430.802M3251.74 321.642H3360.9M3251.74 430.802V539.962M3251.74 430.802H3360.9M3251.74 539.962V649.123M3251.74 539.962H3360.9M3251.74 649.123V758.283M3251.74 649.123H3360.9M3251.74 758.283V867.443M3251.74 758.283H3360.9M3251.74 867.443V976.604M3251.74 867.443H3360.9M3251.74 976.604V1085.76M3251.74 976.604H3360.9M3251.74 1085.76V1194.92M3251.74 1085.76H3360.9M3251.74 1194.92V1304.09M3251.74 1194.92H3360.9M3251.74 1304.09V1413.25M3251.74 1304.09H3360.9M3251.74 1413.25V1522.41M3251.74 1413.25H3360.9M3251.74 1522.41V1631.57M3251.74 1522.41H3360.9M3251.74 1631.57V1740.73M3251.74 1631.57H3360.9M3251.74 1740.73V1849.89M3251.74 1740.73H3360.9M3251.74 1849.89V1959.05M3251.74 1849.89H3360.9M3251.74 1959.05V2068.21M3251.74 1959.05H3360.9M3251.74 2068.21H3360.9M3360.9 -115V-5.83961M3360.9 -115H3470.06V-5.83961M3360.9 -5.83961V103.321M3360.9 -5.83961H3470.06M3360.9 103.321V212.481M3360.9 103.321H3470.06M3360.9 212.481V321.642M3360.9 212.481H3470.06M3360.9 321.642V430.802M3360.9 321.642H3470.06M3360.9 430.802V539.962M3360.9 430.802H3470.06M3360.9 539.962V649.123M3360.9 539.962H3470.06M3360.9 649.123V758.283M3360.9 649.123H3470.06M3360.9 758.283V867.443M3360.9 758.283H3470.06M3360.9 867.443V976.604M3360.9 867.443H3470.06M3360.9 976.604V1085.76M3360.9 976.604H3470.06M3360.9 1085.76V1194.92M3360.9 1085.76H3470.06M3360.9 1194.92V1304.09M3360.9 1194.92H3470.06M3360.9 1304.09V1413.25M3360.9 1304.09H3470.06M3360.9 1413.25V1522.41M3360.9 1413.25H3470.06M3360.9 1522.41V1631.57M3360.9 1522.41H3470.06M3360.9 1631.57V1740.73M3360.9 1631.57H3470.06M3360.9 1740.73V1849.89M3360.9 1740.73H3470.06M3360.9 1849.89V1959.05M3360.9 1849.89H3470.06M3360.9 1959.05V2068.21M3360.9 1959.05H3470.06M3360.9 2068.21H3470.06V1959.05M3470.06 -5.83961V103.321M3470.06 103.321V212.481M3470.06 212.481V321.642M3470.06 321.642V430.802M3470.06 430.802V539.962M3470.06 539.962V649.123M3470.06 649.123V758.283M3470.06 758.283V867.443M3470.06 867.443V976.604M3470.06 976.604V1085.76M3470.06 1085.76V1194.92M3470.06 1194.92V1304.09M3470.06 1304.09V1413.25M3470.06 1413.25V1522.41M3470.06 1522.41V1631.57M3470.06 1631.57V1740.73M3470.06 1740.73V1849.89M3470.06 1849.89V1959.05" stroke="url(#paint0_linear_125_209)" stroke-opacity="0.38" stroke-width="1.23588"/>
<rect x="1069" y="430" width="109" height="109" fill="#162D4B"/>
<rect x="1724" y="758" width="109" height="109" fill="#162D4B"/>
<rect x="523" y="758" width="109" height="109" fill="#162D4B"/>
<rect x="1178" y="212" width="109" height="109" fill="#162D4B"/>
<rect x="414" y="212" width="109" height="109" fill="#162D4B"/>
<rect x="1178" y="758" width="109" height="109" fill="#162D4B"/>
<rect x="850" y="649" width="109" height="109" fill="#162D4B"/>
<rect x="1833" y="431" width="109" height="109" fill="#162D4B"/>
<rect x="86" y="540" width="109" height="109" fill="#162D4B"/>
<defs>
<linearGradient id="paint0_linear_125_209" x1="1068.53" y1="-115" x2="1068.53" y2="2068.21" gradientUnits="userSpaceOnUse">
<stop stop-color="white" stop-opacity="0.6"/>
<stop offset="0.599" stop-color="#999999" stop-opacity="0.6"/>
<stop offset="1" stop-color="#999999" stop-opacity="0"/>
</linearGradient>
</defs>
</svg>
