<svg width="289" height="232" viewBox="0 0 289 232" fill="none" xmlns="http://www.w3.org/2000/svg">
<g clip-path="url(#clip0_310_229)">
<path d="M249.952 144.067H263.12C262.623 146.065 262.065 148.035 261.463 149.988C246.953 196.976 203.174 231.115 151.422 231.115C136.041 231.134 120.813 228.063 106.643 222.083C92.4721 216.103 79.6478 207.336 68.931 196.304H87.8773C105.95 210.64 128.35 218.426 151.418 218.389C196.061 218.389 234.036 189.834 248.065 149.988C248.749 148.042 249.378 146.068 249.952 144.067Z" fill="#CDD0D5"/>
<path d="M52.8216 56.4295C54.0751 54.3601 55.3881 52.3418 56.7606 50.3744C77.5522 20.4172 112.191 0.820803 151.412 0.820803C215.036 0.808055 266.575 52.363 266.575 115.952C266.578 122.883 265.957 129.8 264.721 136.619H251.766C253.16 129.818 253.86 122.894 253.856 115.952C253.856 59.3806 207.996 13.5207 151.422 13.5207C136.408 13.506 121.575 16.7995 107.978 23.1669C94.3815 29.5344 82.3545 38.8193 72.7527 50.3616C71.1146 52.3248 69.5508 54.3431 68.0615 56.4168L52.8216 56.4295Z" fill="#CDD0D5"/>
<path d="M57.0342 74.6171L52.8817 89.3407H69.9031L67.9431 96.6643H50.8197L39.5507 136.632H29.5215L47.0018 74.6171L49.5832 65.4578L173.822 65.2603L171.368 74.4195L57.0342 74.6171Z" fill="url(#paint0_linear_310_229)"/>
<path d="M75.3273 81.6983L73.1379 89.3469L61.6809 129.308L59.5775 136.638H88.8335L90.9337 129.308L102.407 89.3405L104.596 81.6919L75.3273 81.6983ZM83.4731 129.308H69.5367L81.0096 89.3405H94.9429L83.4731 129.308Z" fill="url(#paint1_linear_310_229)"/>
<path d="M113.619 89.341L109.163 104.893H130.548L128.358 112.532L123.549 129.308L121.449 136.632H92.2025L94.2994 129.308H116.098L120.904 112.532H99.1085L101.301 104.893L105.76 89.341L107.949 81.6987H137.199L135.006 89.341H113.619Z" fill="url(#paint2_linear_310_229)"/>
<path d="M146.01 89.341L141.552 104.893H162.936L160.747 112.532L155.941 129.308L153.837 136.632H124.591L126.691 129.308H148.486L153.296 112.532H131.5L133.693 104.893L138.151 89.341L140.341 81.6987H169.587L167.395 89.341H146.01Z" fill="url(#paint3_linear_310_229)"/>
<path d="M68.0611 56.4295H178.453L177.749 59.1639H192.24L192.482 58.3066L195.054 49.1314L195.911 46.0879H181.172L180.047 50.3616H56.7699C55.3931 52.3438 54.0801 54.3622 52.8308 56.4167L68.0611 56.4295Z" fill="#CDD0D5"/>
<path d="M178.211 123.435L185.695 111.599H188.134L183.09 135.337H180.617L184.442 117.27H184.376L177.024 128.908L174.65 117.27L174.584 117.336L170.76 135.337H168.287L173.331 111.599H175.738L178.211 123.435ZM207.507 111.599L207.079 113.676H197.221L195.408 122.116H202.496L202.067 124.193H194.979L193.034 133.26H203.122L202.694 135.337H190.133L195.177 111.599H207.507ZM225.924 116.742H223.452C223.847 114.764 222.759 113.215 220.748 113.215C215.737 113.215 213.956 120.006 213.165 123.666C212.44 127.128 211.385 133.721 216.132 133.721C218.605 133.721 220.484 131.875 221.012 129.534H223.485C222.43 133.392 219.561 135.798 215.605 135.798C209.077 135.798 209.67 128.644 210.725 123.6C211.846 118.391 214.451 111.137 221.144 111.137C224.441 111.137 226.419 113.445 225.924 116.742Z" fill="#121B44"/>
<path d="M178.211 123.435L177.354 123.614L177.796 125.728L178.95 123.903L178.211 123.435ZM185.695 111.599V110.724H185.213L184.955 111.131L185.695 111.599ZM188.134 111.599L188.99 111.781L189.215 110.724H188.134V111.599ZM183.09 135.337V136.212H183.799L183.946 135.519L183.09 135.337ZM180.617 135.337L179.761 135.156L179.538 136.212H180.617V135.337ZM184.442 117.27L185.298 117.451L185.521 116.395H184.442V117.27ZM184.376 117.27V116.395H183.894L183.636 116.802L184.376 117.27ZM177.024 128.908L176.166 129.083L176.601 131.215L177.763 129.375L177.024 128.908ZM174.65 117.27L175.507 117.095L175.182 115.5L174.031 116.651L174.65 117.27ZM174.584 117.336L173.965 116.717L173.782 116.9L173.728 117.154L174.584 117.336ZM170.76 135.337V136.212H171.468L171.615 135.519L170.76 135.337ZM168.287 135.337L167.431 135.155L167.206 136.212H168.287V135.337ZM173.331 111.599V110.724H172.623L172.475 111.417L173.331 111.599ZM175.738 111.599L176.594 111.42L176.449 110.724H175.738V111.599ZM178.95 123.903L186.434 112.067L184.955 111.131L177.471 122.967L178.95 123.903ZM185.695 112.474H188.134V110.724H185.695V112.474ZM187.278 111.417L182.234 135.155L183.946 135.519L188.99 111.781L187.278 111.417ZM183.09 134.462H180.617V136.212H183.09V134.462ZM181.473 135.518L185.298 117.451L183.586 117.089L179.761 135.156L181.473 135.518ZM184.442 116.395H184.376V118.145H184.442V116.395ZM183.636 116.802L176.284 128.441L177.763 129.375L185.116 117.737L183.636 116.802ZM177.881 128.733L175.507 117.095L173.793 117.445L176.166 129.083L177.881 128.733ZM174.031 116.651L173.965 116.717L175.203 117.954L175.269 117.888L174.031 116.651ZM173.728 117.154L169.904 135.155L171.615 135.519L175.44 117.518L173.728 117.154ZM170.76 134.462H168.287V136.212H170.76V134.462ZM169.143 135.519L174.187 111.781L172.475 111.417L167.431 135.155L169.143 135.519ZM173.331 112.474H175.738V110.724H173.331V112.474ZM174.881 111.778L177.354 123.614L179.067 123.256L176.594 111.42L174.881 111.778ZM207.507 111.599L208.364 111.776L208.581 110.724H207.507V111.599ZM207.079 113.676V114.551H207.792L207.936 113.853L207.079 113.676ZM197.221 113.676V112.801H196.514L196.366 113.492L197.221 113.676ZM195.408 122.116L194.552 121.932L194.325 122.991H195.408V122.116ZM202.496 122.116L203.353 122.293L203.57 121.241H202.496V122.116ZM202.067 124.193V125.068H202.78L202.924 124.37L202.067 124.193ZM194.979 124.193V123.318H194.272L194.124 124.01L194.979 124.193ZM193.034 133.26L192.178 133.076L191.951 134.135H193.034V133.26ZM203.122 133.26L203.979 133.437L204.196 132.385H203.122V133.26ZM202.694 135.337V136.212H203.407L203.551 135.514L202.694 135.337ZM190.133 135.337L189.277 135.155L189.052 136.212H190.133V135.337ZM195.177 111.599V110.724H194.468L194.321 111.417L195.177 111.599ZM206.65 111.422L206.222 113.499L207.936 113.853L208.364 111.776L206.65 111.422ZM207.079 112.801H197.221V114.551H207.079V112.801ZM196.366 113.492L194.552 121.932L196.263 122.3L198.076 113.86L196.366 113.492ZM195.408 122.991H202.496V121.241H195.408V122.991ZM201.639 121.939L201.211 124.016L202.924 124.37L203.353 122.293L201.639 121.939ZM202.067 123.318H194.979V125.068H202.067V123.318ZM194.124 124.01L192.178 133.076L193.889 133.443L195.835 124.377L194.124 124.01ZM193.034 134.135H203.122V132.385H193.034V134.135ZM202.266 133.083L201.837 135.16L203.551 135.514L203.979 133.437L202.266 133.083ZM202.694 134.462H190.133V136.212H202.694V134.462ZM190.988 135.519L196.033 111.781L194.321 111.417L189.277 135.155L190.988 135.519ZM195.177 112.474H207.507V110.724H195.177V112.474ZM225.924 116.742V117.617H226.678L226.79 116.872L225.924 116.742ZM223.452 116.742L222.594 116.571L222.384 117.617H223.452V116.742ZM213.165 123.666L212.31 123.481L212.309 123.486L213.165 123.666ZM221.012 129.534V128.659H220.312L220.158 129.342L221.012 129.534ZM223.485 129.534L224.329 129.765L224.631 128.659H223.485V129.534ZM210.725 123.6L209.87 123.416L209.869 123.421L210.725 123.6ZM225.924 115.867H223.452V117.617H225.924V115.867ZM224.31 116.914C224.546 115.734 224.355 114.586 223.703 113.713C223.042 112.828 221.991 112.34 220.748 112.34V114.09C221.517 114.09 222.015 114.376 222.301 114.76C222.597 115.156 222.753 115.772 222.594 116.571L224.31 116.914ZM220.748 112.34C217.766 112.34 215.836 114.383 214.605 116.65C213.37 118.925 212.707 121.645 212.31 123.481L214.02 123.851C214.415 122.027 215.037 119.522 216.143 117.485C217.253 115.442 218.719 114.09 220.748 114.09V112.34ZM212.309 123.486C211.947 125.214 211.47 127.854 211.727 130.092C211.856 131.213 212.18 132.338 212.89 133.195C213.633 134.091 214.717 134.596 216.132 134.596V132.846C215.174 132.846 214.61 132.527 214.237 132.079C213.833 131.591 213.576 130.851 213.466 129.892C213.245 127.967 213.658 125.58 214.022 123.845L212.309 123.486ZM216.132 134.596C219.092 134.596 221.266 132.385 221.865 129.727L220.158 129.342C219.702 131.365 218.118 132.846 216.132 132.846V134.596ZM221.012 130.409H223.485V128.659H221.012V130.409ZM222.641 129.304C221.679 132.819 219.128 134.924 215.605 134.924V136.673C219.994 136.673 223.18 133.964 224.329 129.765L222.641 129.304ZM215.605 134.924C214.14 134.924 213.174 134.526 212.52 133.947C211.855 133.358 211.418 132.496 211.176 131.402C210.684 129.179 211.057 126.29 211.582 123.779L209.869 123.421C209.339 125.954 208.888 129.164 209.467 131.78C209.761 133.105 210.333 134.347 211.36 135.257C212.398 136.176 213.806 136.673 215.605 136.673V134.924ZM211.581 123.784C212.134 121.215 213.037 118.226 214.575 115.897C216.096 113.595 218.179 112.012 221.144 112.012V110.263C217.416 110.263 214.85 112.307 213.115 114.933C211.397 117.534 210.438 120.776 209.87 123.416L211.581 123.784ZM221.144 112.012C222.585 112.012 223.641 112.511 224.291 113.272C224.941 114.033 225.276 115.165 225.059 116.612L226.79 116.872C227.067 115.023 226.661 113.352 225.621 112.135C224.581 110.918 223 110.263 221.144 110.263V112.012Z" fill="#CDD1D4"/>
<path d="M276.162 144.067C275.594 146.064 274.967 148.038 274.278 149.988H164.75L145.169 183.91L141.737 189.834H42.7V183.91H138.327L157.911 149.988L161.327 144.067H276.162Z" fill="#CDD0D4"/>
<path d="M44.1495 193.07H29.5215L33.094 179.994H47.8176L44.1495 193.07Z" fill="#CDD0D5"/>
<path d="M16.1906 160.332L15.5596 162.585H15.2059L14.6163 160.332H16.1906Z" fill="#CED1D3"/>
<path d="M138.827 160.334H14.6164L15.206 162.587H0.934937L4.37045 149.989L4.5043 149.511H19.2311L17.899 154.266H141.899L138.827 160.334Z" fill="#CDD0D5"/>
<path d="M285.11 153.568H270.486L274.055 140.492H288.782L285.11 153.568Z" fill="#CDD0D5"/>
<path d="M282.809 129.308H274.326L276.397 121.723H284.938L282.809 129.308Z" fill="url(#paint4_linear_310_229)"/>
<path d="M193.77 76.3041H185.286L187.358 68.7192H195.899L193.77 76.3041Z" fill="#CDD0D5"/>
<path d="M213.242 59.2975H206.772L208.35 53.5132H214.864L213.242 59.2975Z" fill="url(#paint5_linear_310_229)"/>
<path d="M18.5808 138.518H10.0972L12.1687 130.933H20.7097L18.5808 138.518Z" fill="url(#paint6_linear_310_229)"/>
<path d="M31.9469 148.51H25.4742L27.055 142.726H33.569L31.9469 148.51Z" fill="#CDD0D5"/>
<path d="M59.568 203.054H53.0985L54.6792 197.27H61.1933L59.568 203.054Z" fill="url(#paint7_linear_310_229)"/>
</g>
<defs>
<linearGradient id="paint0_linear_310_229" x1="101.67" y1="136.632" x2="101.67" y2="65.2603" gradientUnits="userSpaceOnUse">
<stop offset="0.1" stop-color="#FDCE21"/>
<stop offset="1" stop-color="#F69D1D"/>
</linearGradient>
<linearGradient id="paint1_linear_310_229" x1="82.0772" y1="136.631" x2="82.0772" y2="81.6983" gradientUnits="userSpaceOnUse">
<stop offset="0.1" stop-color="#FDCE21"/>
<stop offset="1" stop-color="#F69D1D"/>
</linearGradient>
<linearGradient id="paint2_linear_310_229" x1="114.699" y1="136.632" x2="114.699" y2="81.6987" gradientUnits="userSpaceOnUse">
<stop offset="0.1" stop-color="#FDCE21"/>
<stop offset="1" stop-color="#F69D1D"/>
</linearGradient>
<linearGradient id="paint3_linear_310_229" x1="147.091" y1="136.632" x2="147.091" y2="81.6987" gradientUnits="userSpaceOnUse">
<stop offset="0.1" stop-color="#FDCE21"/>
<stop offset="1" stop-color="#F69D1D"/>
</linearGradient>
<linearGradient id="paint4_linear_310_229" x1="274.326" y1="125.515" x2="284.938" y2="125.515" gradientUnits="userSpaceOnUse">
<stop offset="0.1" stop-color="#FDCE21"/>
<stop offset="1" stop-color="#F69D1D"/>
</linearGradient>
<linearGradient id="paint5_linear_310_229" x1="206.772" y1="56.4069" x2="214.864" y2="56.4069" gradientUnits="userSpaceOnUse">
<stop offset="0.1" stop-color="#FDCE21"/>
<stop offset="1" stop-color="#F69D1D"/>
</linearGradient>
<linearGradient id="paint6_linear_310_229" x1="10.0972" y1="134.726" x2="20.7097" y2="134.726" gradientUnits="userSpaceOnUse">
<stop offset="0.1" stop-color="#FDCE21"/>
<stop offset="1" stop-color="#F69D1D"/>
</linearGradient>
<linearGradient id="paint7_linear_310_229" x1="53.0985" y1="200.164" x2="61.1933" y2="200.164" gradientUnits="userSpaceOnUse">
<stop offset="0.1" stop-color="#FDCE21"/>
<stop offset="1" stop-color="#F69D1D"/>
</linearGradient>
<clipPath id="clip0_310_229">
<rect width="289" height="232" fill="white"/>
</clipPath>
</defs>
</svg>
